<mxfile host="app.diagrams.net" modified="2021-06-30T17:05:54.523Z" agent="5.0 (Windows NT 10.0; Win64; x64) AppleWebKit/537.36 (KHTML, like Gecko) Chrome/91.0.4472.124 Safari/537.36" etag="6jqSyzUQyiqFRO7s1AU_" version="14.8.2" type="github" pages="3">
  <diagram id="URdZ5aMDr9tu_wVJEHOu" name="daq_components_interaction">
    <mxGraphModel dx="1998" dy="2196" grid="1" gridSize="10" guides="1" tooltips="1" connect="1" arrows="1" fold="1" page="1" pageScale="1" pageWidth="1600" pageHeight="900" math="0" shadow="0">
      <root>
        <mxCell id="nUejS7Tw1F-ZyD6UZDSD-0" />
        <mxCell id="nUejS7Tw1F-ZyD6UZDSD-1" parent="nUejS7Tw1F-ZyD6UZDSD-0" />
        <mxCell id="l0fVtC7Xo4XvUQ1Fr7K7-2" value="" style="rounded=0;whiteSpace=wrap;html=1;fontSize=30;fontColor=#000000;fillColor=#E6E6E6;align=left;strokeColor=none;" vertex="1" parent="nUejS7Tw1F-ZyD6UZDSD-1">
          <mxGeometry x="90" y="264.36" width="1060" height="200" as="geometry" />
        </mxCell>
        <mxCell id="l0fVtC7Xo4XvUQ1Fr7K7-0" value="" style="rounded=0;whiteSpace=wrap;html=1;fontSize=30;fontColor=#000000;fillColor=#E6E6E6;align=left;strokeColor=none;" vertex="1" parent="nUejS7Tw1F-ZyD6UZDSD-1">
          <mxGeometry x="378.48" y="494.36" width="490" height="390" as="geometry" />
        </mxCell>
        <mxCell id="l0fVtC7Xo4XvUQ1Fr7K7-1" value="" style="rounded=0;whiteSpace=wrap;html=1;fontSize=30;fontColor=#000000;fillColor=#E6E6E6;align=left;strokeColor=none;" vertex="1" parent="nUejS7Tw1F-ZyD6UZDSD-1">
          <mxGeometry x="900" y="494.36" width="250" height="390" as="geometry" />
        </mxCell>
        <mxCell id="yliI6aOFtjnllWzx6Zir-0" value="" style="rounded=0;whiteSpace=wrap;html=1;fontSize=30;fontColor=#000000;fillColor=#E6E6E6;align=left;strokeColor=none;" vertex="1" parent="nUejS7Tw1F-ZyD6UZDSD-1">
          <mxGeometry x="1180" y="34.36" width="330" height="562.35" as="geometry" />
        </mxCell>
        <mxCell id="3MTnDQyD5OkgnaoiNcvF-2" value="" style="rounded=0;whiteSpace=wrap;html=1;fontSize=30;fontColor=#000000;fillColor=#E6E6E6;align=left;strokeColor=none;" vertex="1" parent="nUejS7Tw1F-ZyD6UZDSD-1">
          <mxGeometry x="90" y="34.36" width="1060" height="202.35" as="geometry" />
        </mxCell>
        <mxCell id="cecFWQr-AZFyZ3H5GjwE-0" value="" style="group" vertex="1" connectable="0" parent="nUejS7Tw1F-ZyD6UZDSD-1">
          <mxGeometry x="160.03" y="126.71" width="120" height="80" as="geometry" />
        </mxCell>
        <mxCell id="cecFWQr-AZFyZ3H5GjwE-1" value="" style="group" vertex="1" connectable="0" parent="cecFWQr-AZFyZ3H5GjwE-0">
          <mxGeometry width="120" height="80" as="geometry" />
        </mxCell>
        <mxCell id="cecFWQr-AZFyZ3H5GjwE-2" value="" style="triangle;whiteSpace=wrap;html=1;strokeColor=#000000;strokeWidth=3;fillColor=#E6E6E6;fontSize=36;fontColor=#000000;align=left;direction=west;" vertex="1" parent="cecFWQr-AZFyZ3H5GjwE-1">
          <mxGeometry x="35.294117647058826" y="-7.272727272727273" width="84.70588235294119" height="87.27272727272728" as="geometry" />
        </mxCell>
        <mxCell id="cecFWQr-AZFyZ3H5GjwE-3" value="" style="whiteSpace=wrap;html=1;aspect=fixed;strokeColor=#000000;strokeWidth=3;fillColor=#E6E6E6;fontSize=36;fontColor=#000000;align=left;" vertex="1" parent="cecFWQr-AZFyZ3H5GjwE-1">
          <mxGeometry y="-7.272727272727273" width="84.70588235294119" height="84.70588235294119" as="geometry" />
        </mxCell>
        <mxCell id="cecFWQr-AZFyZ3H5GjwE-4" value="" style="text;html=1;align=center;verticalAlign=middle;whiteSpace=wrap;rounded=0;fontSize=30;fillColor=#ffffff;strokeWidth=3;strokeColor=#000000;" vertex="1" parent="cecFWQr-AZFyZ3H5GjwE-1">
          <mxGeometry x="14.12" y="20" width="91.76" height="30" as="geometry" />
        </mxCell>
        <mxCell id="cecFWQr-AZFyZ3H5GjwE-5" value="&lt;span style=&quot;font-size: 20px&quot;&gt;Detector&lt;/span&gt;" style="text;html=1;strokeColor=none;fillColor=none;align=center;verticalAlign=middle;whiteSpace=wrap;rounded=0;fontSize=17;" vertex="1" parent="cecFWQr-AZFyZ3H5GjwE-1">
          <mxGeometry x="20" y="24.999999999999996" width="80" height="20" as="geometry" />
        </mxCell>
        <mxCell id="cecFWQr-AZFyZ3H5GjwE-6" value="" style="group" vertex="1" connectable="0" parent="nUejS7Tw1F-ZyD6UZDSD-1">
          <mxGeometry x="760.03" y="106.71" width="340" height="100" as="geometry" />
        </mxCell>
        <mxCell id="ON3Jy1AWz2NKPdnDJYn4-1" value="&lt;span style=&quot;color: rgba(0 , 0 , 0 , 0) ; font-family: monospace ; font-size: 0px&quot;&gt;%3CmxGraphModel%3E%3Croot%3E%3CmxCell%20id%3D%220%22%2F%3E%3CmxCell%20id%3D%221%22%20parent%3D%220%22%2F%3E%3CmxCell%20id%3D%222%22%20value%3D%22%22%20style%3D%22group%22%20vertex%3D%221%22%20connectable%3D%220%22%20parent%3D%221%22%3E%3CmxGeometry%20x%3D%2213%22%20y%3D%22230%22%20width%3D%22580.9%22%20height%3D%22332.30999999999995%22%20as%3D%22geometry%22%2F%3E%3C%2FmxCell%3E%3CmxCell%20id%3D%223%22%20value%3D%22%22%20style%3D%22rounded%3D0%3BwhiteSpace%3Dwrap%3Bhtml%3D1%3B%22%20vertex%3D%221%22%20parent%3D%222%22%3E%3CmxGeometry%20width%3D%22580.9%22%20height%3D%22332.31%22%20as%3D%22geometry%22%2F%3E%3C%2FmxCell%3E%3CmxCell%20id%3D%224%22%20value%3D%22FrameBuffer%22%20style%3D%22text%3Bhtml%3D1%3BstrokeColor%3Dnone%3BfillColor%3Dnone%3Balign%3Dleft%3BverticalAlign%3Dmiddle%3BwhiteSpace%3Dwrap%3Brounded%3D0%3BfontSize%3D25%3B%22%20vertex%3D%221%22%20parent%3D%222%22%3E%3CmxGeometry%20x%3D%2217%22%20width%3D%22240%22%20height%3D%2240%22%20as%3D%22geometry%22%2F%3E%3C%2FmxCell%3E%3CmxCell%20id%3D%225%22%20value%3D%22%22%20style%3D%22group%22%20vertex%3D%221%22%20connectable%3D%220%22%20parent%3D%222%22%3E%3CmxGeometry%20x%3D%22237%22%20y%3D%2280%22%20width%3D%22130%22%20height%3D%22170%22%20as%3D%22geometry%22%2F%3E%3C%2FmxCell%3E%3CmxCell%20id%3D%226%22%20value%3D%22%22%20style%3D%22rounded%3D0%3BwhiteSpace%3Dwrap%3Bhtml%3D1%3BfontSize%3D12%3Balign%3Dleft%3BfillColor%3D%23ffe6cc%3BstrokeColor%3D%23d79b00%3B%22%20vertex%3D%221%22%20parent%3D%225%22%3E%3CmxGeometry%20width%3D%22129.99999999999994%22%20height%3D%22170%22%20as%3D%22geometry%22%2F%3E%3C%2FmxCell%3E%3CmxCell%20id%3D%227%22%20value%3D%22frame%20data%22%20style%3D%22text%3Bhtml%3D1%3BstrokeColor%3Dnone%3BfillColor%3Dnone%3Balign%3Dcenter%3BverticalAlign%3Dmiddle%3BwhiteSpace%3Dwrap%3Brounded%3D0%3BfontSize%3D15%3B%22%20vertex%3D%221%22%20parent%3D%225%22%3E%3CmxGeometry%20width%3D%22129.99999999999994%22%20height%3D%2230.909090909090907%22%20as%3D%22geometry%22%2F%3E%3C%2FmxCell%3E%3CmxCell%20id%3D%228%22%20value%3D%221000101010001%26lt%3Bbr%26gt%3B1011000101010%26lt%3Bbr%26gt%3B0001011000101%26lt%3Bbr%26gt%3B1010001011000%26lt%3Bbr%26gt%3B1010001011000%22%20style%3D%22text%3Bhtml%3D1%3BstrokeColor%3Dnone%3BfillColor%3Dnone%3Balign%3Dleft%3BverticalAlign%3Dmiddle%3BwhiteSpace%3Dwrap%3Brounded%3D0%3BfontSize%3D12%3B%22%20vertex%3D%221%22%20parent%3D%225%22%3E%3CmxGeometry%20x%3D%2218.669999999999998%22%20y%3D%2246.36363636363636%22%20width%3D%22111.33%22%20height%3D%22108.18181818181817%22%20as%3D%22geometry%22%2F%3E%3C%2FmxCell%3E%3CmxCell%20id%3D%229%22%20value%3D%22%22%20style%3D%22rounded%3D0%3BwhiteSpace%3Dwrap%3Bhtml%3D1%3BfontSize%3D15%3BfillColor%3D%23fff2cc%3BstrokeColor%3D%23d6b656%3B%22%20vertex%3D%221%22%20parent%3D%222%22%3E%3CmxGeometry%20x%3D%2217%22%20y%3D%2280%22%20width%3D%22160%22%20height%3D%22170%22%20as%3D%22geometry%22%2F%3E%3C%2FmxCell%3E%3CmxCell%20id%3D%2210%22%20value%3D%22%26lt%3Bb%26gt%3BModuleFrame%26lt%3B%2Fb%26gt%3B%22%20style%3D%22text%3Bhtml%3D1%3BstrokeColor%3Dnone%3BfillColor%3Dnone%3Balign%3Dcenter%3BverticalAlign%3Dmiddle%3BwhiteSpace%3Dwrap%3Brounded%3D0%3BfontSize%3D15%3B%22%20vertex%3D%221%22%20parent%3D%222%22%3E%3CmxGeometry%20x%3D%2217%22%20y%3D%2280%22%20width%3D%22160%22%20height%3D%2238.18%22%20as%3D%22geometry%22%2F%3E%3C%2FmxCell%3E%3CmxCell%20id%3D%2211%22%20value%3D%22uint64_t%20%26lt%3Bb%26gt%3Bid%26lt%3B%2Fb%26gt%3B%26lt%3Bbr%26gt%3Buint64_t%20%26lt%3Bb%26gt%3Bpulse_id%26lt%3B%2Fb%26gt%3B%26lt%3Bbr%20style%3D%26quot%3Bfont-size%3A%2012px%26quot%3B%26gt%3Buint64_t%26amp%3Bnbsp%3B%26lt%3Bb%26gt%3Bframe_index%26lt%3B%2Fb%26gt%3B%26lt%3Bbr%20style%3D%26quot%3Bfont-size%3A%2012px%26quot%3B%26gt%3Buint64_t%26amp%3Bnbsp%3B%26lt%3Bb%26gt%3Bdaq_rec%26lt%3B%2Fb%26gt%3B%26lt%3Bbr%20style%3D%26quot%3Bfont-size%3A%2012px%26quot%3B%26gt%3Buint64_t%26amp%3Bnbsp%3B%26lt%3Bb%26gt%3Bn_recv_packets%26lt%3B%2Fb%26gt%3B%26lt%3Bbr%20style%3D%26quot%3Bfont-size%3A%2012px%26quot%3B%26gt%3Buint64_t%26amp%3Bnbsp%3B%26lt%3Bb%26gt%3Bmodule_id%26lt%3B%2Fb%26gt%3B%26lt%3Bbr%26gt%3Buint64_t%20%26lt%3Bb%26gt%3Bpos_y%26lt%3B%2Fb%26gt%3B%26lt%3Bbr%26gt%3Buint64_t%20%26lt%3Bb%26gt%3Bpos_x%26lt%3B%2Fb%26gt%3B%22%20style%3D%22text%3Bhtml%3D1%3BstrokeColor%3Dnone%3BfillColor%3Dnone%3Balign%3Dleft%3BverticalAlign%3Dtop%3BwhiteSpace%3Dwrap%3Brounded%3D0%3BfontSize%3D12%3B%22%20vertex%3D%221%22%20parent%3D%222%22%3E%3CmxGeometry%20x%3D%2227%22%20y%3D%22120%22%20width%3D%22140%22%20height%3D%22120%22%20as%3D%22geometry%22%2F%3E%3C%2FmxCell%3E%3CmxCell%20id%3D%2212%22%20value%3D%22...%22%20style%3D%22rounded%3D0%3BwhiteSpace%3Dwrap%3Bhtml%3D1%3BfontSize%3D15%3BfillColor%3D%23fff2cc%3BstrokeColor%3D%23d6b656%3B%22%20vertex%3D%221%22%20parent%3D%222%22%3E%3CmxGeometry%20x%3D%22177%22%20y%3D%2280%22%20width%3D%2230%22%20height%3D%22170%22%20as%3D%22geometry%22%2F%3E%3C%2FmxCell%3E%3CmxCell%20id%3D%2213%22%20value%3D%22...%22%20style%3D%22rounded%3D0%3BwhiteSpace%3Dwrap%3Bhtml%3D1%3BfontSize%3D15%3BfillColor%3D%23fff2cc%3BstrokeColor%3D%23d6b656%3B%22%20vertex%3D%221%22%20parent%3D%222%22%3E%3CmxGeometry%20x%3D%22207%22%20y%3D%2280%22%20width%3D%2230%22%20height%3D%22170%22%20as%3D%22geometry%22%2F%3E%3C%2FmxCell%3E%3CmxCell%20id%3D%2214%22%20value%3D%22...%22%20style%3D%22rounded%3D0%3BwhiteSpace%3Dwrap%3Bhtml%3D1%3BfontSize%3D15%3BfillColor%3D%23ffe6cc%3BstrokeColor%3D%23d79b00%3B%22%20vertex%3D%221%22%20parent%3D%222%22%3E%3CmxGeometry%20x%3D%22367%22%20y%3D%2280%22%20width%3D%2230%22%20height%3D%22170%22%20as%3D%22geometry%22%2F%3E%3C%2FmxCell%3E%3CmxCell%20id%3D%2215%22%20value%3D%22...%22%20style%3D%22rounded%3D0%3BwhiteSpace%3Dwrap%3Bhtml%3D1%3BfontSize%3D15%3BfillColor%3D%23ffe6cc%3BstrokeColor%3D%23d79b00%3B%22%20vertex%3D%221%22%20parent%3D%222%22%3E%3CmxGeometry%20x%3D%22397%22%20y%3D%2280%22%20width%3D%2230%22%20height%3D%22170%22%20as%3D%22geometry%22%2F%3E%3C%2FmxCell%3E%3CmxCell%20id%3D%2216%22%20value%3D%22...%22%20style%3D%22rounded%3D0%3BwhiteSpace%3Dwrap%3Bhtml%3D1%3BfontSize%3D15%3BfillColor%3D%23fff2cc%3BstrokeColor%3D%23d6b656%3B%22%20vertex%3D%221%22%20parent%3D%222%22%3E%3CmxGeometry%20x%3D%22437%22%20y%3D%2280%22%20width%3D%2250%22%20height%3D%22170%22%20as%3D%22geometry%22%2F%3E%3C%2FmxCell%3E%3CmxCell%20id%3D%2217%22%20value%3D%22...%22%20style%3D%22rounded%3D0%3BwhiteSpace%3Dwrap%3Bhtml%3D1%3BfontSize%3D15%3BfillColor%3D%23fff2cc%3BstrokeColor%3D%23d6b656%3B%22%20vertex%3D%221%22%20parent%3D%222%22%3E%3CmxGeometry%20x%3D%22497%22%20y%3D%2280%22%20width%3D%2250%22%20height%3D%22170%22%20as%3D%22geometry%22%2F%3E%3C%2FmxCell%3E%3CmxCell%20id%3D%2218%22%20value%3D%22...%22%20style%3D%22rounded%3D0%3BwhiteSpace%3Dwrap%3Bhtml%3D1%3BfontSize%3D16%3Balign%3Dcenter%3B%22%20vertex%3D%221%22%20parent%3D%222%22%3E%3CmxGeometry%20x%3D%22497%22%20y%3D%22250%22%20width%3D%2250%22%20height%3D%2260%22%20as%3D%22geometry%22%2F%3E%3C%2FmxCell%3E%3CmxCell%20id%3D%2219%22%20value%3D%22%22%20style%3D%22group%22%20vertex%3D%221%22%20connectable%3D%220%22%20parent%3D%222%22%3E%3CmxGeometry%20x%3D%2217%22%20y%3D%2245%22%20width%3D%22530%22%20height%3D%2224.659999999999968%22%20as%3D%22geometry%22%2F%3E%3C%2FmxCell%3E%3CmxCell%20id%3D%2220%22%20value%3D%22%22%20style%3D%22endArrow%3Dclassic%3BstartArrow%3Dclassic%3Bhtml%3D1%3BfontSize%3D16%3BstartFill%3D1%3B%22%20edge%3D%221%22%20parent%3D%2219%22%3E%3CmxGeometry%20width%3D%2250%22%20height%3D%2250%22%20relative%3D%221%22%20as%3D%22geometry%22%3E%3CmxPoint%20x%3D%22530%22%20y%3D%2224.659999999999968%22%20as%3D%22sourcePoint%22%2F%3E%3CmxPoint%20y%3D%2224.659999999999968%22%20as%3D%22targetPoint%22%2F%3E%3C%2FmxGeometry%3E%3C%2FmxCell%3E%3CmxCell%20id%3D%2221%22%20value%3D%22n_slots%22%20style%3D%22text%3Bhtml%3D1%3BstrokeColor%3Dnone%3BfillColor%3Dnone%3Balign%3Dcenter%3BverticalAlign%3Dmiddle%3BwhiteSpace%3Dwrap%3Brounded%3D0%3BfontSize%3D16%3B%22%20vertex%3D%221%22%20parent%3D%2219%22%3E%3CmxGeometry%20x%3D%22254%22%20width%3D%2240%22%20height%3D%2220%22%20as%3D%22geometry%22%2F%3E%3C%2FmxCell%3E%3CmxCell%20id%3D%2222%22%20value%3D%22...%22%20style%3D%22rounded%3D0%3BwhiteSpace%3Dwrap%3Bhtml%3D1%3BfontSize%3D16%3Balign%3Dcenter%3B%22%20vertex%3D%221%22%20parent%3D%222%22%3E%3CmxGeometry%20x%3D%22437%22%20y%3D%22250%22%20width%3D%2250%22%20height%3D%2260%22%20as%3D%22geometry%22%2F%3E%3C%2FmxCell%3E%3CmxCell%20id%3D%2223%22%20value%3D%22%26lt%3Bfont%20style%3D%26quot%3Bfont-size%3A%2016px%26quot%3B%26gt%3Bunassembled%20frames%20for%20single%20image%26lt%3B%2Ffont%26gt%3B%22%20style%3D%22rounded%3D0%3BwhiteSpace%3Dwrap%3Bhtml%3D1%3BfontSize%3D16%3Balign%3Dcenter%3BverticalAlign%3Dbottom%3B%22%20vertex%3D%221%22%20parent%3D%222%22%3E%3CmxGeometry%20x%3D%2217%22%20y%3D%22250%22%20width%3D%22410%22%20height%3D%2260%22%20as%3D%22geometry%22%2F%3E%3C%2FmxCell%3E%3CmxCell%20id%3D%2224%22%20value%3D%22%22%20style%3D%22endArrow%3Dclassic%3BstartArrow%3Dclassic%3Bhtml%3D1%3BfontSize%3D16%3BstartFill%3D1%3B%22%20edge%3D%221%22%20parent%3D%222%22%3E%3CmxGeometry%20width%3D%2250%22%20height%3D%2250%22%20relative%3D%221%22%20as%3D%22geometry%22%3E%3CmxPoint%20x%3D%22427%22%20y%3D%22279.65999999999997%22%20as%3D%22sourcePoint%22%2F%3E%3CmxPoint%20x%3D%22237%22%20y%3D%22279.65999999999997%22%20as%3D%22targetPoint%22%2F%3E%3C%2FmxGeometry%3E%3C%2FmxCell%3E%3CmxCell%20id%3D%2225%22%20value%3D%22n_modules%22%20style%3D%22text%3Bhtml%3D1%3BstrokeColor%3Dnone%3BfillColor%3Dnone%3Balign%3Dcenter%3BverticalAlign%3Dmiddle%3BwhiteSpace%3Dwrap%3Brounded%3D0%3BfontSize%3D16%3B%22%20vertex%3D%221%22%20parent%3D%222%22%3E%3CmxGeometry%20x%3D%22312%22%20y%3D%22255%22%20width%3D%2240%22%20height%3D%2220%22%20as%3D%22geometry%22%2F%3E%3C%2FmxCell%3E%3CmxCell%20id%3D%2226%22%20value%3D%22%22%20style%3D%22endArrow%3Dclassic%3BstartArrow%3Dclassic%3Bhtml%3D1%3BfontSize%3D16%3BstartFill%3D1%3B%22%20edge%3D%221%22%20parent%3D%222%22%3E%3CmxGeometry%20width%3D%2250%22%20height%3D%2250%22%20relative%3D%221%22%20as%3D%22geometry%22%3E%3CmxPoint%20x%3D%22237%22%20y%3D%22279.65999999999997%22%20as%3D%22sourcePoint%22%2F%3E%3CmxPoint%20x%3D%2217%22%20y%3D%22279.65999999999997%22%20as%3D%22targetPoint%22%2F%3E%3C%2FmxGeometry%3E%3C%2FmxCell%3E%3CmxCell%20id%3D%2227%22%20value%3D%22n_modules%22%20style%3D%22text%3Bhtml%3D1%3BstrokeColor%3Dnone%3BfillColor%3Dnone%3Balign%3Dcenter%3BverticalAlign%3Dmiddle%3BwhiteSpace%3Dwrap%3Brounded%3D0%3BfontSize%3D16%3B%22%20vertex%3D%221%22%20parent%3D%222%22%3E%3CmxGeometry%20x%3D%22111.1%22%20y%3D%22255%22%20width%3D%2240%22%20height%3D%2220%22%20as%3D%22geometry%22%2F%3E%3C%2FmxCell%3E%3CmxCell%20id%3D%2228%22%20value%3D%22%22%20style%3D%22endArrow%3Dnone%3Bhtml%3D1%3BfontSize%3D16%3BentryX%3D1%3BentryY%3D1%3BentryDx%3D0%3BentryDy%3D0%3B%22%20edge%3D%221%22%20parent%3D%222%22%20target%3D%2213%22%3E%3CmxGeometry%20width%3D%2250%22%20height%3D%2250%22%20relative%3D%221%22%20as%3D%22geometry%22%3E%3CmxPoint%20x%3D%22237%22%20y%3D%22280%22%20as%3D%22sourcePoint%22%2F%3E%3CmxPoint%20x%3D%22227%22%20y%3D%22220%22%20as%3D%22targetPoint%22%2F%3E%3C%2FmxGeometry%3E%3C%2FmxCell%3E%3C%2Froot%3E%3C%2FmxGraphModel%3E&lt;/span&gt;" style="rounded=0;whiteSpace=wrap;html=1;fillColor=#cdeb8b;strokeColor=#36393d;" vertex="1" parent="cecFWQr-AZFyZ3H5GjwE-6">
          <mxGeometry width="340" height="100" as="geometry" />
        </mxCell>
        <mxCell id="ON3Jy1AWz2NKPdnDJYn4-16" value="Detector buffer" style="text;html=1;strokeColor=none;fillColor=none;align=center;verticalAlign=middle;whiteSpace=wrap;rounded=0;fontSize=25;" vertex="1" parent="cecFWQr-AZFyZ3H5GjwE-6">
          <mxGeometry width="340" height="100" as="geometry" />
        </mxCell>
        <mxCell id="rSU91n5mv4zdPFl64Kzz-0" value="" style="group" vertex="1" connectable="0" parent="nUejS7Tw1F-ZyD6UZDSD-1">
          <mxGeometry x="390.03" y="106.71" width="260" height="100" as="geometry" />
        </mxCell>
        <mxCell id="UtmP21MXnQm59rKfM6Gd-1" value="" style="rounded=0;whiteSpace=wrap;html=1;fillColor=#ffff88;strokeColor=#36393d;" vertex="1" parent="rSU91n5mv4zdPFl64Kzz-0">
          <mxGeometry width="260" height="100" as="geometry" />
        </mxCell>
        <mxCell id="UtmP21MXnQm59rKfM6Gd-2" value="Detector readout" style="text;html=1;strokeColor=none;fillColor=none;align=center;verticalAlign=middle;whiteSpace=wrap;rounded=0;fontSize=25;" vertex="1" parent="rSU91n5mv4zdPFl64Kzz-0">
          <mxGeometry width="260" height="100" as="geometry" />
        </mxCell>
        <mxCell id="DVsbCmXSWL5IoIFuuVEK-0" value="" style="shape=flexArrow;endArrow=classic;html=1;fontSize=16;fillColor=#008a00;strokeColor=#005700;" edge="1" parent="nUejS7Tw1F-ZyD6UZDSD-1">
          <mxGeometry width="50" height="50" relative="1" as="geometry">
            <mxPoint x="290.03" y="156.29" as="sourcePoint" />
            <mxPoint x="380.03" y="156.29" as="targetPoint" />
          </mxGeometry>
        </mxCell>
        <mxCell id="DVsbCmXSWL5IoIFuuVEK-1" value="" style="shape=flexArrow;endArrow=classic;html=1;fontSize=16;fillColor=#008a00;strokeColor=#005700;" edge="1" parent="nUejS7Tw1F-ZyD6UZDSD-1">
          <mxGeometry width="50" height="50" relative="1" as="geometry">
            <mxPoint x="1110.03" y="155.88000000000008" as="sourcePoint" />
            <mxPoint x="1200.03" y="155.88000000000008" as="targetPoint" />
          </mxGeometry>
        </mxCell>
        <mxCell id="brO_G9Os5ljLCr1j8HA2-0" value="Broker" style="ellipse;whiteSpace=wrap;html=1;aspect=fixed;fontSize=25;strokeColor=#6c8ebf;fillColor=#dae8fc;align=center;" vertex="1" parent="nUejS7Tw1F-ZyD6UZDSD-1">
          <mxGeometry x="558.48" y="524.36" width="260" height="260" as="geometry" />
        </mxCell>
        <mxCell id="pVc_dfqMP5yLecrZC4I5-0" value="" style="group" vertex="1" connectable="0" parent="nUejS7Tw1F-ZyD6UZDSD-1">
          <mxGeometry x="90" y="614.36" width="140" height="210" as="geometry" />
        </mxCell>
        <mxCell id="pVc_dfqMP5yLecrZC4I5-1" value="" style="shape=actor;whiteSpace=wrap;html=1;strokeColor=#000000;strokeWidth=3;fillColor=#E6E6E6;fontSize=36;fontColor=#000000;align=left;" vertex="1" parent="pVc_dfqMP5yLecrZC4I5-0">
          <mxGeometry x="20" width="100.00000000000001" height="140" as="geometry" />
        </mxCell>
        <mxCell id="pVc_dfqMP5yLecrZC4I5-2" value="User" style="text;html=1;strokeColor=none;fillColor=none;align=center;verticalAlign=middle;whiteSpace=wrap;rounded=0;fontSize=30;fontColor=#000000;" vertex="1" parent="pVc_dfqMP5yLecrZC4I5-0">
          <mxGeometry y="150" width="140" height="59.99999999999999" as="geometry" />
        </mxCell>
        <mxCell id="w5waQb_SYsAvfOnhKw_M-0" value="" style="shape=flexArrow;endArrow=classic;html=1;fontSize=16;fillColor=#008a00;strokeColor=#005700;" edge="1" parent="nUejS7Tw1F-ZyD6UZDSD-1">
          <mxGeometry width="50" height="50" relative="1" as="geometry">
            <mxPoint x="660.03" y="155.88000000000008" as="sourcePoint" />
            <mxPoint x="750.03" y="155.88000000000008" as="targetPoint" />
          </mxGeometry>
        </mxCell>
        <mxCell id="pAN-wUtUdY-77zeoYKpf-3" value="" style="endArrow=classic;startArrow=classic;html=1;fontSize=30;fontColor=#000000;strokeColor=#000000;strokeWidth=3;" edge="1" parent="nUejS7Tw1F-ZyD6UZDSD-1">
          <mxGeometry width="50" height="50" relative="1" as="geometry">
            <mxPoint x="320" y="336.71000000000004" as="sourcePoint" />
            <mxPoint x="570" y="554.36" as="targetPoint" />
          </mxGeometry>
        </mxCell>
        <mxCell id="pAN-wUtUdY-77zeoYKpf-4" value="" style="endArrow=classic;startArrow=classic;html=1;fontSize=30;fontColor=#000000;strokeColor=#000000;strokeWidth=3;" edge="1" parent="nUejS7Tw1F-ZyD6UZDSD-1">
          <mxGeometry width="50" height="50" relative="1" as="geometry">
            <mxPoint x="210.02999999999997" y="276.71000000000004" as="sourcePoint" />
            <mxPoint x="210.02999999999997" y="216.71" as="targetPoint" />
          </mxGeometry>
        </mxCell>
        <mxCell id="VG9Sj00nX96apVnzAH05-0" value="" style="shape=flexArrow;endArrow=classic;startArrow=classic;html=1;fontSize=30;fontColor=#000000;strokeColor=#000000;strokeWidth=3;" edge="1" parent="nUejS7Tw1F-ZyD6UZDSD-1">
          <mxGeometry width="100" height="100" relative="1" as="geometry">
            <mxPoint x="230" y="700.36" as="sourcePoint" />
            <mxPoint x="360" y="700.36" as="targetPoint" />
          </mxGeometry>
        </mxCell>
        <mxCell id="K9s4eJrZY6OI_KFN8a-F-5" value="" style="endArrow=classic;startArrow=classic;html=1;fontSize=30;fontColor=#000000;strokeColor=#000000;strokeWidth=3;" edge="1" parent="nUejS7Tw1F-ZyD6UZDSD-1">
          <mxGeometry width="50" height="50" relative="1" as="geometry">
            <mxPoint x="750" y="524.36" as="sourcePoint" />
            <mxPoint x="820" y="394.36" as="targetPoint" />
          </mxGeometry>
        </mxCell>
        <mxCell id="VM6AsTsUVLtPQNqUqIQa-2" value="" style="group" vertex="1" connectable="0" parent="nUejS7Tw1F-ZyD6UZDSD-1">
          <mxGeometry x="119.995" y="284.365" width="193.89" height="97.05500000000012" as="geometry" />
        </mxCell>
        <mxCell id="VM6AsTsUVLtPQNqUqIQa-0" value="" style="shape=cube;whiteSpace=wrap;html=1;boundedLbl=1;backgroundOutline=1;darkOpacity=0.05;darkOpacity2=0.1;rotation=90;size=11;fillColor=#e1d5e7;strokeColor=#9673a6;" vertex="1" parent="VM6AsTsUVLtPQNqUqIQa-2">
          <mxGeometry x="48.48500000000007" y="-48.48499999999996" width="96.92" height="193.89" as="geometry" />
        </mxCell>
        <mxCell id="VM6AsTsUVLtPQNqUqIQa-1" value="&lt;div style=&quot;font-size: 21px&quot;&gt;control&lt;br&gt;service&lt;/div&gt;" style="text;html=1;strokeColor=none;fillColor=none;align=center;verticalAlign=middle;whiteSpace=wrap;rounded=0;fontSize=21;" vertex="1" parent="VM6AsTsUVLtPQNqUqIQa-2">
          <mxGeometry x="0.3050000000000068" y="14.215000000000089" width="179.97" height="82.84" as="geometry" />
        </mxCell>
        <mxCell id="VM6AsTsUVLtPQNqUqIQa-3" value="" style="group" vertex="1" connectable="0" parent="nUejS7Tw1F-ZyD6UZDSD-1">
          <mxGeometry x="939.9950000000001" y="280.82499999999993" width="193.88999999999987" height="97.05500000000006" as="geometry" />
        </mxCell>
        <mxCell id="K9s4eJrZY6OI_KFN8a-F-6" value="" style="shape=cube;whiteSpace=wrap;html=1;boundedLbl=1;backgroundOutline=1;darkOpacity=0.05;darkOpacity2=0.1;rotation=90;size=11;fillColor=#e1d5e7;strokeColor=#9673a6;" vertex="1" parent="VM6AsTsUVLtPQNqUqIQa-3">
          <mxGeometry x="48.4849999999999" y="-48.48499999999996" width="96.92" height="193.89" as="geometry" />
        </mxCell>
        <mxCell id="K9s4eJrZY6OI_KFN8a-F-7" value="&lt;div style=&quot;font-size: 21px&quot;&gt;streaming&lt;/div&gt;&lt;div style=&quot;font-size: 21px&quot;&gt;service&lt;/div&gt;" style="text;html=1;strokeColor=none;fillColor=none;align=center;verticalAlign=middle;whiteSpace=wrap;rounded=0;fontSize=21;" vertex="1" parent="VM6AsTsUVLtPQNqUqIQa-3">
          <mxGeometry x="0.3049999999998363" y="14.21500000000006" width="179.97" height="82.84" as="geometry" />
        </mxCell>
        <mxCell id="VM6AsTsUVLtPQNqUqIQa-4" value="" style="group" vertex="1" connectable="0" parent="nUejS7Tw1F-ZyD6UZDSD-1">
          <mxGeometry x="719.9950000000001" y="280.82499999999993" width="193.88999999999987" height="97.05500000000006" as="geometry" />
        </mxCell>
        <mxCell id="Wo28qOzpxKW2JTDN2EJK-4" value="" style="shape=cube;whiteSpace=wrap;html=1;boundedLbl=1;backgroundOutline=1;darkOpacity=0.05;darkOpacity2=0.1;rotation=90;size=11;fillColor=#e1d5e7;strokeColor=#9673a6;" vertex="1" parent="VM6AsTsUVLtPQNqUqIQa-4">
          <mxGeometry x="48.4849999999999" y="-48.48499999999996" width="96.92" height="193.89" as="geometry" />
        </mxCell>
        <mxCell id="Wo28qOzpxKW2JTDN2EJK-5" value="&lt;div style=&quot;font-size: 21px&quot;&gt;writer&amp;nbsp;&lt;/div&gt;&lt;div style=&quot;font-size: 21px&quot;&gt;service&lt;/div&gt;" style="text;html=1;strokeColor=none;fillColor=none;align=center;verticalAlign=middle;whiteSpace=wrap;rounded=0;fontSize=21;" vertex="1" parent="VM6AsTsUVLtPQNqUqIQa-4">
          <mxGeometry x="0.3049999999998363" y="14.21500000000006" width="179.97" height="82.84" as="geometry" />
        </mxCell>
        <mxCell id="VM6AsTsUVLtPQNqUqIQa-5" value="" style="shape=flexArrow;endArrow=classic;html=1;fontSize=16;fillColor=#008a00;strokeColor=#005700;" edge="1" parent="nUejS7Tw1F-ZyD6UZDSD-1">
          <mxGeometry width="50" height="50" relative="1" as="geometry">
            <mxPoint x="819.41" y="216.70999999999995" as="sourcePoint" />
            <mxPoint x="819.41" y="276.71000000000004" as="targetPoint" />
          </mxGeometry>
        </mxCell>
        <mxCell id="x6JT6CwOZbg4fBXf2wiT-0" value="" style="shape=flexArrow;endArrow=classic;html=1;fontSize=16;fillColor=#008a00;strokeColor=#005700;" edge="1" parent="nUejS7Tw1F-ZyD6UZDSD-1">
          <mxGeometry width="50" height="50" relative="1" as="geometry">
            <mxPoint x="1036.36" y="216.71" as="sourcePoint" />
            <mxPoint x="1036.36" y="276.71000000000004" as="targetPoint" />
          </mxGeometry>
        </mxCell>
        <mxCell id="Wt9-8_wOO52dkjCMOt4u-0" value="" style="group" vertex="1" connectable="0" parent="nUejS7Tw1F-ZyD6UZDSD-1">
          <mxGeometry x="929.9950000000001" y="614.3649999999999" width="193.88999999999987" height="97.05500000000006" as="geometry" />
        </mxCell>
        <mxCell id="Wt9-8_wOO52dkjCMOt4u-1" value="" style="shape=cube;whiteSpace=wrap;html=1;boundedLbl=1;backgroundOutline=1;darkOpacity=0.05;darkOpacity2=0.1;rotation=90;size=11;fillColor=#e1d5e7;strokeColor=#9673a6;" vertex="1" parent="Wt9-8_wOO52dkjCMOt4u-0">
          <mxGeometry x="48.4849999999999" y="-48.48499999999996" width="96.92" height="193.89" as="geometry" />
        </mxCell>
        <mxCell id="Wt9-8_wOO52dkjCMOt4u-2" value="&lt;div style=&quot;font-size: 21px&quot;&gt;metadata writer&lt;br&gt;service&lt;/div&gt;" style="text;html=1;strokeColor=none;fillColor=none;align=center;verticalAlign=middle;whiteSpace=wrap;rounded=0;fontSize=21;" vertex="1" parent="Wt9-8_wOO52dkjCMOt4u-0">
          <mxGeometry x="0.3049999999998363" y="14.21500000000006" width="179.97" height="82.84" as="geometry" />
        </mxCell>
        <mxCell id="Wt9-8_wOO52dkjCMOt4u-3" value="" style="group" vertex="1" connectable="0" parent="nUejS7Tw1F-ZyD6UZDSD-1">
          <mxGeometry x="929.9950000000001" y="754.3649999999999" width="193.88999999999987" height="97.05500000000006" as="geometry" />
        </mxCell>
        <mxCell id="Wt9-8_wOO52dkjCMOt4u-4" value="" style="shape=cube;whiteSpace=wrap;html=1;boundedLbl=1;backgroundOutline=1;darkOpacity=0.05;darkOpacity2=0.1;rotation=90;size=11;fillColor=#e1d5e7;strokeColor=#9673a6;" vertex="1" parent="Wt9-8_wOO52dkjCMOt4u-3">
          <mxGeometry x="48.4849999999999" y="-48.48499999999996" width="96.92" height="193.89" as="geometry" />
        </mxCell>
        <mxCell id="Wt9-8_wOO52dkjCMOt4u-5" value="&lt;div style=&quot;font-size: 21px&quot;&gt;data validation service&lt;/div&gt;" style="text;html=1;strokeColor=none;fillColor=none;align=center;verticalAlign=middle;whiteSpace=wrap;rounded=0;fontSize=21;" vertex="1" parent="Wt9-8_wOO52dkjCMOt4u-3">
          <mxGeometry x="0.3049999999998363" y="14.21500000000006" width="179.97" height="82.84" as="geometry" />
        </mxCell>
        <mxCell id="mSKWAv69H1L_o4wuz0Jo-0" value="" style="endArrow=classic;startArrow=classic;html=1;fontSize=30;fontColor=#000000;strokeColor=#000000;strokeWidth=3;" edge="1" parent="nUejS7Tw1F-ZyD6UZDSD-1">
          <mxGeometry width="50" height="50" relative="1" as="geometry">
            <mxPoint x="830" y="664.36" as="sourcePoint" />
            <mxPoint x="920" y="664.36" as="targetPoint" />
          </mxGeometry>
        </mxCell>
        <mxCell id="mSKWAv69H1L_o4wuz0Jo-1" value="" style="endArrow=classic;startArrow=classic;html=1;fontSize=30;fontColor=#000000;strokeColor=#000000;strokeWidth=3;entryX=0;entryY=0.5;entryDx=0;entryDy=0;" edge="1" parent="nUejS7Tw1F-ZyD6UZDSD-1" target="Wt9-8_wOO52dkjCMOt4u-5">
          <mxGeometry width="50" height="50" relative="1" as="geometry">
            <mxPoint x="800" y="734.36" as="sourcePoint" />
            <mxPoint x="910" y="814.36" as="targetPoint" />
          </mxGeometry>
        </mxCell>
        <mxCell id="eEahpBWppZW0N5Ok3ixB-1" value="" style="group" vertex="1" connectable="0" parent="nUejS7Tw1F-ZyD6UZDSD-1">
          <mxGeometry x="1210.03" y="104.3550000000001" width="266.41499999999974" height="450.0049999999999" as="geometry" />
        </mxCell>
        <mxCell id="TDx3Xu2DCtY0h0jPPw3P-1" value="" style="rounded=0;whiteSpace=wrap;html=1;fontSize=30;strokeColor=#b85450;fillColor=#f8cecc;align=left;" vertex="1" parent="eEahpBWppZW0N5Ok3ixB-1">
          <mxGeometry x="10" y="90.00499999999988" width="256" height="360" as="geometry" />
        </mxCell>
        <mxCell id="TDx3Xu2DCtY0h0jPPw3P-0" value="" style="group" vertex="1" connectable="0" parent="eEahpBWppZW0N5Ok3ixB-1">
          <mxGeometry width="266.41499999999974" height="101.70000000000005" as="geometry" />
        </mxCell>
        <mxCell id="7Q6q9cGEZ25CwLPVpcZ7-1" value="" style="shape=cube;whiteSpace=wrap;html=1;boundedLbl=1;backgroundOutline=1;darkOpacity=0.05;darkOpacity2=0.1;rotation=90;size=11;fillColor=#f8cecc;strokeColor=#b85450;" vertex="1" parent="TDx3Xu2DCtY0h0jPPw3P-0">
          <mxGeometry x="82.3599999999999" y="-82.3550000000001" width="101.7" height="266.41" as="geometry" />
        </mxCell>
        <mxCell id="7Q6q9cGEZ25CwLPVpcZ7-2" value="cam_server" style="text;html=1;strokeColor=none;fillColor=none;align=center;verticalAlign=middle;whiteSpace=wrap;rounded=0;fontSize=25;" vertex="1" parent="TDx3Xu2DCtY0h0jPPw3P-0">
          <mxGeometry y="9.82499999999989" width="253.21" height="90.17" as="geometry" />
        </mxCell>
        <mxCell id="eEahpBWppZW0N5Ok3ixB-0" value="" style="group" vertex="1" connectable="0" parent="eEahpBWppZW0N5Ok3ixB-1">
          <mxGeometry x="64.66000000000008" y="159.99499999999986" width="146.69000000000005" height="141.22999999999993" as="geometry" />
        </mxCell>
        <mxCell id="3v3EMtXuQCd3_SnVudtx-0" value="" style="group;spacing=2;" vertex="1" connectable="0" parent="eEahpBWppZW0N5Ok3ixB-0">
          <mxGeometry width="146.69" height="67.71000000000001" as="geometry" />
        </mxCell>
        <mxCell id="3v3EMtXuQCd3_SnVudtx-1" value="" style="shape=cube;whiteSpace=wrap;html=1;boundedLbl=1;backgroundOutline=1;darkOpacity=0.05;darkOpacity2=0.1;rotation=90;size=11;fillColor=#e1d5e7;strokeColor=#9673a6;" vertex="1" parent="3v3EMtXuQCd3_SnVudtx-0">
          <mxGeometry x="39.49000000000002" y="-39.48999999999997" width="67.71" height="146.69" as="geometry" />
        </mxCell>
        <mxCell id="3v3EMtXuQCd3_SnVudtx-2" value="&lt;div style=&quot;font-size: 21px&quot;&gt;analysis&lt;br&gt;pipeline 1&lt;/div&gt;" style="text;html=1;strokeColor=none;fillColor=none;align=center;verticalAlign=middle;whiteSpace=wrap;rounded=0;fontSize=21;" vertex="1" parent="3v3EMtXuQCd3_SnVudtx-0">
          <mxGeometry x="10" y="10" width="118.34" height="57.71" as="geometry" />
        </mxCell>
        <mxCell id="3v3EMtXuQCd3_SnVudtx-3" value="" style="group;spacing=2;" vertex="1" connectable="0" parent="eEahpBWppZW0N5Ok3ixB-0">
          <mxGeometry y="73.51999999999995" width="146.69" height="67.71000000000001" as="geometry" />
        </mxCell>
        <mxCell id="3v3EMtXuQCd3_SnVudtx-4" value="" style="shape=cube;whiteSpace=wrap;html=1;boundedLbl=1;backgroundOutline=1;darkOpacity=0.05;darkOpacity2=0.1;rotation=90;size=11;fillColor=#e1d5e7;strokeColor=#9673a6;" vertex="1" parent="3v3EMtXuQCd3_SnVudtx-3">
          <mxGeometry x="39.49000000000002" y="-39.48999999999997" width="67.71" height="146.69" as="geometry" />
        </mxCell>
        <mxCell id="3v3EMtXuQCd3_SnVudtx-5" value="&lt;div style=&quot;font-size: 21px&quot;&gt;analysis&lt;br&gt;pipeline 2&lt;/div&gt;" style="text;html=1;strokeColor=none;fillColor=none;align=center;verticalAlign=middle;whiteSpace=wrap;rounded=0;fontSize=21;" vertex="1" parent="3v3EMtXuQCd3_SnVudtx-3">
          <mxGeometry x="10" y="10" width="118.34" height="57.71" as="geometry" />
        </mxCell>
        <mxCell id="nBzhcicD8K-4g-u5CNNj-2" value="" style="group" vertex="1" connectable="0" parent="nUejS7Tw1F-ZyD6UZDSD-1">
          <mxGeometry x="417.80999999999995" y="523.7900000000001" width="60" height="255.62" as="geometry" />
        </mxCell>
        <mxCell id="nBzhcicD8K-4g-u5CNNj-0" value="" style="shape=cube;whiteSpace=wrap;html=1;boundedLbl=1;backgroundOutline=1;darkOpacity=0.05;darkOpacity2=0.1;fontSize=21;size=10;rotation=90;direction=north;fillColor=#fff2cc;strokeColor=#d6b656;flipV=1;" vertex="1" parent="nBzhcicD8K-4g-u5CNNj-2">
          <mxGeometry x="-97.80999999999995" y="97.80999999999995" width="255.62" height="60" as="geometry" />
        </mxCell>
        <mxCell id="nBzhcicD8K-4g-u5CNNj-1" value="&lt;font style=&quot;font-size: 20px;&quot;&gt;REST interface&lt;br style=&quot;font-size: 20px;&quot;&gt;&lt;/font&gt;" style="text;html=1;strokeColor=none;fillColor=none;align=center;verticalAlign=middle;whiteSpace=wrap;rounded=0;fontSize=20;rotation=-90;" vertex="1" parent="nBzhcicD8K-4g-u5CNNj-2">
          <mxGeometry x="-85.25999999999988" y="106.38" width="225.93" height="48.37" as="geometry" />
        </mxCell>
        <mxCell id="3MTnDQyD5OkgnaoiNcvF-0" value="" style="endArrow=classic;startArrow=classic;html=1;fontSize=30;fontColor=#000000;strokeColor=#000000;strokeWidth=3;" edge="1" parent="nUejS7Tw1F-ZyD6UZDSD-1">
          <mxGeometry width="50" height="50" relative="1" as="geometry">
            <mxPoint x="488.4799999999998" y="651.26" as="sourcePoint" />
            <mxPoint x="548.48" y="651.36" as="targetPoint" />
          </mxGeometry>
        </mxCell>
        <mxCell id="tuXtWjt5iYWQ28psuNaL-4" value="" style="group" vertex="1" connectable="0" parent="nUejS7Tw1F-ZyD6UZDSD-1">
          <mxGeometry x="1410" y="620.13" width="100" height="264.23" as="geometry" />
        </mxCell>
        <mxCell id="IcJdg_VW3kQI8tTGmr3M-2" value="Legend" style="text;html=1;strokeColor=none;fillColor=none;align=center;verticalAlign=middle;whiteSpace=wrap;rounded=0;fontSize=15;fontColor=#000000;" vertex="1" parent="tuXtWjt5iYWQ28psuNaL-4">
          <mxGeometry x="33.309999999999945" width="66.69" height="22.71" as="geometry" />
        </mxCell>
        <mxCell id="IcJdg_VW3kQI8tTGmr3M-3" value="" style="rounded=0;whiteSpace=wrap;html=1;fontSize=14;" vertex="1" parent="tuXtWjt5iYWQ28psuNaL-4">
          <mxGeometry y="24.230000000000018" width="100" height="240" as="geometry" />
        </mxCell>
        <mxCell id="IcJdg_VW3kQI8tTGmr3M-4" value="" style="group" vertex="1" connectable="0" parent="tuXtWjt5iYWQ28psuNaL-4">
          <mxGeometry x="10.850000000000136" y="164.22500000000014" width="80" height="47.74500000000012" as="geometry" />
        </mxCell>
        <mxCell id="IcJdg_VW3kQI8tTGmr3M-5" value="" style="shape=cube;whiteSpace=wrap;html=1;boundedLbl=1;backgroundOutline=1;darkOpacity=0.05;darkOpacity2=0.1;rotation=90;size=6;direction=east;flipV=0;flipH=0;" vertex="1" parent="IcJdg_VW3kQI8tTGmr3M-4">
          <mxGeometry x="26.8599999999999" y="-25.404999999999973" width="26.28" height="77.09" as="geometry" />
        </mxCell>
        <mxCell id="IcJdg_VW3kQI8tTGmr3M-6" value="service" style="text;html=1;strokeColor=none;fillColor=none;align=center;verticalAlign=middle;whiteSpace=wrap;rounded=0;" vertex="1" parent="IcJdg_VW3kQI8tTGmr3M-4">
          <mxGeometry y="24.74500000000012" width="80" height="20" as="geometry" />
        </mxCell>
        <mxCell id="IcJdg_VW3kQI8tTGmr3M-19" value="" style="group" vertex="1" connectable="0" parent="tuXtWjt5iYWQ28psuNaL-4">
          <mxGeometry x="10" y="216.23000000000002" width="80" height="42.09000000000026" as="geometry" />
        </mxCell>
        <mxCell id="IcJdg_VW3kQI8tTGmr3M-20" value="" style="rounded=0;whiteSpace=wrap;html=1;fontSize=9;" vertex="1" parent="IcJdg_VW3kQI8tTGmr3M-19">
          <mxGeometry x="5" width="70" height="22.09" as="geometry" />
        </mxCell>
        <mxCell id="IcJdg_VW3kQI8tTGmr3M-21" value="component" style="text;html=1;strokeColor=none;fillColor=none;align=center;verticalAlign=middle;whiteSpace=wrap;rounded=0;" vertex="1" parent="IcJdg_VW3kQI8tTGmr3M-19">
          <mxGeometry y="20.09000000000026" width="80" height="20" as="geometry" />
        </mxCell>
        <mxCell id="IcJdg_VW3kQI8tTGmr3M-22" value="" style="group" vertex="1" connectable="0" parent="tuXtWjt5iYWQ28psuNaL-4">
          <mxGeometry x="10" y="124.23000000000002" width="90" height="29.5" as="geometry" />
        </mxCell>
        <mxCell id="IcJdg_VW3kQI8tTGmr3M-23" value="" style="shape=flexArrow;endArrow=none;html=1;fontSize=15;fontColor=#000000;strokeColor=#000000;endFill=0;startArrow=block;width=6.8;startSize=4.096;startWidth=12.88;" edge="1" parent="IcJdg_VW3kQI8tTGmr3M-22">
          <mxGeometry width="50" height="50" relative="1" as="geometry">
            <mxPoint x="83" y="-1" as="sourcePoint" />
            <mxPoint x="3" y="-1" as="targetPoint" />
          </mxGeometry>
        </mxCell>
        <mxCell id="IcJdg_VW3kQI8tTGmr3M-24" value="user interaction" style="text;html=1;strokeColor=none;fillColor=none;align=left;verticalAlign=middle;whiteSpace=wrap;rounded=0;fontColor=#000000;fontSize=12;" vertex="1" parent="IcJdg_VW3kQI8tTGmr3M-22">
          <mxGeometry y="7.5" width="90" height="20" as="geometry" />
        </mxCell>
        <mxCell id="tuXtWjt5iYWQ28psuNaL-0" value="" style="group" vertex="1" connectable="0" parent="tuXtWjt5iYWQ28psuNaL-4">
          <mxGeometry x="5" y="44.23000000000002" width="90" height="22.5" as="geometry" />
        </mxCell>
        <mxCell id="IcJdg_VW3kQI8tTGmr3M-11" value="" style="endArrow=classic;html=1;anchorPointDirection=0;strokeWidth=3;" edge="1" parent="tuXtWjt5iYWQ28psuNaL-0">
          <mxGeometry x="-175" y="-100" width="50" height="50" as="geometry">
            <mxPoint x="5" as="sourcePoint" />
            <mxPoint x="85" as="targetPoint" />
          </mxGeometry>
        </mxCell>
        <mxCell id="IcJdg_VW3kQI8tTGmr3M-12" value="broker message" style="text;html=1;strokeColor=none;fillColor=none;align=left;verticalAlign=middle;whiteSpace=wrap;rounded=0;fontColor=#000000;fontSize=12;" vertex="1" parent="tuXtWjt5iYWQ28psuNaL-0">
          <mxGeometry y="2.5" width="90" height="20" as="geometry" />
        </mxCell>
        <mxCell id="tuXtWjt5iYWQ28psuNaL-1" value="" style="group" vertex="1" connectable="0" parent="tuXtWjt5iYWQ28psuNaL-4">
          <mxGeometry x="10" y="84.23000000000002" width="90" height="29.5" as="geometry" />
        </mxCell>
        <mxCell id="tuXtWjt5iYWQ28psuNaL-2" value="" style="shape=flexArrow;endArrow=none;html=1;fontSize=15;fontColor=#000000;strokeColor=#005700;endFill=0;startArrow=block;width=6.8;startSize=4.096;startWidth=12.88;fillColor=#008a00;" edge="1" parent="tuXtWjt5iYWQ28psuNaL-1">
          <mxGeometry width="50" height="50" relative="1" as="geometry">
            <mxPoint x="83" y="-1" as="sourcePoint" />
            <mxPoint x="3" y="-1" as="targetPoint" />
          </mxGeometry>
        </mxCell>
        <mxCell id="tuXtWjt5iYWQ28psuNaL-3" value="data transfer" style="text;html=1;strokeColor=none;fillColor=none;align=center;verticalAlign=middle;whiteSpace=wrap;rounded=0;fontColor=#000000;fontSize=12;" vertex="1" parent="tuXtWjt5iYWQ28psuNaL-1">
          <mxGeometry y="4.5" width="80" height="20" as="geometry" />
        </mxCell>
        <mxCell id="tuXtWjt5iYWQ28psuNaL-7" value="Data ingestion" style="text;html=1;strokeColor=none;fillColor=none;align=center;verticalAlign=middle;whiteSpace=wrap;rounded=0;fontSize=24;fontColor=#000000;rotation=0;fontStyle=1" vertex="1" parent="nUejS7Tw1F-ZyD6UZDSD-1">
          <mxGeometry x="90" y="34.36" width="210" height="62.64" as="geometry" />
        </mxCell>
        <mxCell id="tuXtWjt5iYWQ28psuNaL-8" value="Live image analysis" style="text;html=1;strokeColor=none;fillColor=none;align=center;verticalAlign=middle;whiteSpace=wrap;rounded=0;fontSize=24;fontColor=#000000;rotation=0;fontStyle=1" vertex="1" parent="nUejS7Tw1F-ZyD6UZDSD-1">
          <mxGeometry x="1178.24" y="34.36" width="330" height="60" as="geometry" />
        </mxCell>
        <mxCell id="tuXtWjt5iYWQ28psuNaL-9" value="Online services" style="text;html=1;strokeColor=none;fillColor=none;align=center;verticalAlign=middle;whiteSpace=wrap;rounded=0;fontSize=24;fontColor=#000000;rotation=0;fontStyle=1" vertex="1" parent="nUejS7Tw1F-ZyD6UZDSD-1">
          <mxGeometry x="90" y="401.72" width="220" height="62.64" as="geometry" />
        </mxCell>
        <mxCell id="tuXtWjt5iYWQ28psuNaL-10" value="Offline services" style="text;html=1;strokeColor=none;fillColor=none;align=center;verticalAlign=middle;whiteSpace=wrap;rounded=0;fontSize=24;fontColor=#000000;rotation=0;fontStyle=1" vertex="1" parent="nUejS7Tw1F-ZyD6UZDSD-1">
          <mxGeometry x="900.65" y="499.36" width="249.35" height="45" as="geometry" />
        </mxCell>
        <mxCell id="tuXtWjt5iYWQ28psuNaL-13" value="Control layer" style="text;html=1;strokeColor=none;fillColor=none;align=center;verticalAlign=middle;whiteSpace=wrap;rounded=0;fontSize=24;fontColor=#000000;rotation=0;fontStyle=1" vertex="1" parent="nUejS7Tw1F-ZyD6UZDSD-1">
          <mxGeometry x="380" y="821.72" width="490" height="62.64" as="geometry" />
        </mxCell>
      </root>
    </mxGraphModel>
  </diagram>
  <diagram id="t-VAmkEQNR0f93fX5EcB" name="user_interaction_flow">
    <mxGraphModel dx="1998" dy="2196" grid="1" gridSize="10" guides="1" tooltips="1" connect="1" arrows="1" fold="1" page="1" pageScale="1" pageWidth="1600" pageHeight="900" math="0" shadow="0">
      <root>
        <mxCell id="VzMmww4hq2OdrxLp2IZ8-0" />
        <mxCell id="VzMmww4hq2OdrxLp2IZ8-1" parent="VzMmww4hq2OdrxLp2IZ8-0" />
        <mxCell id="DimUQ4nAoNdwlKg9loN--1" value="" style="ellipse;whiteSpace=wrap;html=1;aspect=fixed;fillColor=#dae8fc;strokeColor=#6c8ebf;" parent="VzMmww4hq2OdrxLp2IZ8-1" vertex="1">
          <mxGeometry x="720" y="257.71" width="360" height="360" as="geometry" />
        </mxCell>
        <mxCell id="DimUQ4nAoNdwlKg9loN--12" value="" style="endArrow=classic;html=1;anchorPointDirection=0;strokeWidth=3;" parent="VzMmww4hq2OdrxLp2IZ8-1" edge="1">
          <mxGeometry x="490" y="307.75" width="50" height="50" as="geometry">
            <mxPoint x="550" y="368" as="sourcePoint" />
            <mxPoint x="807" y="367.74999999999994" as="targetPoint" />
          </mxGeometry>
        </mxCell>
        <mxCell id="DimUQ4nAoNdwlKg9loN--13" value="" style="endArrow=classic;html=1;anchorPointDirection=0;strokeWidth=3;dashed=1;" parent="VzMmww4hq2OdrxLp2IZ8-1" edge="1">
          <mxGeometry x="490" y="297.71" width="50" height="50" as="geometry">
            <mxPoint x="550" y="378" as="sourcePoint" />
            <mxPoint x="807" y="457.71000000000004" as="targetPoint" />
          </mxGeometry>
        </mxCell>
        <mxCell id="LGFOhgOIkzQ1TKF-ek0G-0" value="RabbitMQ" style="text;html=1;strokeColor=none;fillColor=none;align=center;verticalAlign=middle;whiteSpace=wrap;rounded=0;fontSize=25;" vertex="1" parent="VzMmww4hq2OdrxLp2IZ8-1">
          <mxGeometry x="877.5" y="290" width="40" height="20" as="geometry" />
        </mxCell>
        <mxCell id="LGFOhgOIkzQ1TKF-ek0G-16" value="" style="group" vertex="1" connectable="0" parent="VzMmww4hq2OdrxLp2IZ8-1">
          <mxGeometry x="810" y="337.71" width="175" height="60" as="geometry" />
        </mxCell>
        <mxCell id="LGFOhgOIkzQ1TKF-ek0G-2" value="" style="shape=cylinder3;whiteSpace=wrap;html=1;boundedLbl=1;backgroundOutline=1;size=15;fontSize=22;align=left;rotation=90;container=0;fillColor=#b1ddf0;strokeColor=#10739e;" vertex="1" parent="LGFOhgOIkzQ1TKF-ek0G-16">
          <mxGeometry x="57.5" y="-57.5" width="60" height="175" as="geometry" />
        </mxCell>
        <mxCell id="LGFOhgOIkzQ1TKF-ek0G-3" value="Request exchange" style="text;html=1;strokeColor=none;fillColor=none;align=center;verticalAlign=middle;whiteSpace=wrap;rounded=0;fontSize=15;fontColor=#000000;container=0;" vertex="1" parent="LGFOhgOIkzQ1TKF-ek0G-16">
          <mxGeometry x="10.240000000000009" y="15" width="130" height="30" as="geometry" />
        </mxCell>
        <mxCell id="LGFOhgOIkzQ1TKF-ek0G-17" value="" style="group" vertex="1" connectable="0" parent="VzMmww4hq2OdrxLp2IZ8-1">
          <mxGeometry x="810" y="427.71" width="175" height="60" as="geometry" />
        </mxCell>
        <mxCell id="LGFOhgOIkzQ1TKF-ek0G-12" value="" style="shape=cylinder3;whiteSpace=wrap;html=1;boundedLbl=1;backgroundOutline=1;size=15;fontSize=22;align=left;rotation=90;container=0;fillColor=#b1ddf0;strokeColor=#10739e;" vertex="1" parent="LGFOhgOIkzQ1TKF-ek0G-17">
          <mxGeometry x="57.5" y="-57.5" width="60" height="175" as="geometry" />
        </mxCell>
        <mxCell id="LGFOhgOIkzQ1TKF-ek0G-13" value="Kill exchange" style="text;html=1;strokeColor=none;fillColor=none;align=center;verticalAlign=middle;whiteSpace=wrap;rounded=0;fontSize=15;fontColor=#000000;container=0;" vertex="1" parent="LGFOhgOIkzQ1TKF-ek0G-17">
          <mxGeometry x="10.240000000000009" y="15" width="130" height="30" as="geometry" />
        </mxCell>
        <mxCell id="LGFOhgOIkzQ1TKF-ek0G-18" value="" style="group" vertex="1" connectable="0" parent="VzMmww4hq2OdrxLp2IZ8-1">
          <mxGeometry x="812.5" y="512.75" width="175" height="60" as="geometry" />
        </mxCell>
        <mxCell id="LGFOhgOIkzQ1TKF-ek0G-14" value="" style="shape=cylinder3;whiteSpace=wrap;html=1;boundedLbl=1;backgroundOutline=1;size=15;fontSize=22;align=left;rotation=90;container=0;fillColor=#b1ddf0;strokeColor=#10739e;" vertex="1" parent="LGFOhgOIkzQ1TKF-ek0G-18">
          <mxGeometry x="57.5" y="-57.5" width="60" height="175" as="geometry" />
        </mxCell>
        <mxCell id="LGFOhgOIkzQ1TKF-ek0G-15" value="Status exchange" style="text;html=1;strokeColor=none;fillColor=none;align=center;verticalAlign=middle;whiteSpace=wrap;rounded=0;fontSize=15;fontColor=#000000;container=0;" vertex="1" parent="LGFOhgOIkzQ1TKF-ek0G-18">
          <mxGeometry x="7.500000000000014" y="15" width="130" height="30" as="geometry" />
        </mxCell>
        <mxCell id="DimUQ4nAoNdwlKg9loN--20" value="" style="endArrow=classic;html=1;anchorPointDirection=0;strokeWidth=3;dashed=1;" parent="VzMmww4hq2OdrxLp2IZ8-1" edge="1">
          <mxGeometry x="473" y="296.78999999999996" width="50" height="50" as="geometry">
            <mxPoint x="970" y="457.78999999999996" as="sourcePoint" />
            <mxPoint x="1240" y="458" as="targetPoint" />
          </mxGeometry>
        </mxCell>
        <mxCell id="DimUQ4nAoNdwlKg9loN--19" value="" style="endArrow=classic;html=1;anchorPointDirection=0;strokeWidth=3;" parent="VzMmww4hq2OdrxLp2IZ8-1" edge="1">
          <mxGeometry x="473" y="297.76" width="50" height="50" as="geometry">
            <mxPoint x="970" y="367.76" as="sourcePoint" />
            <mxPoint x="1240" y="428" as="targetPoint" />
          </mxGeometry>
        </mxCell>
        <mxCell id="QXXjV-mQIF6TyyJW1D5D-4" value="" style="endArrow=classic;html=1;anchorPointDirection=0;strokeWidth=3;strokeColor=#3333FF;curved=1;" edge="1" parent="VzMmww4hq2OdrxLp2IZ8-1">
          <mxGeometry x="323" y="364.83" width="50" height="50" as="geometry">
            <mxPoint x="810" y="552.75" as="sourcePoint" />
            <mxPoint x="820" y="716.71" as="targetPoint" />
            <Array as="points">
              <mxPoint x="750" y="626.71" />
            </Array>
          </mxGeometry>
        </mxCell>
        <mxCell id="LGFOhgOIkzQ1TKF-ek0G-19" value="" style="endArrow=classic;html=1;anchorPointDirection=0;strokeWidth=3;strokeColor=#3333FF;curved=1;" edge="1" parent="VzMmww4hq2OdrxLp2IZ8-1">
          <mxGeometry x="563" y="359.85999999999996" width="50" height="50" as="geometry">
            <mxPoint x="980" y="706.71" as="sourcePoint" />
            <mxPoint x="970" y="552.74" as="targetPoint" />
            <Array as="points">
              <mxPoint x="1040" y="626.71" />
            </Array>
          </mxGeometry>
        </mxCell>
        <mxCell id="DimUQ4nAoNdwlKg9loN--14" value="" style="endArrow=none;html=1;anchorPointDirection=0;strokeWidth=3;startArrow=classic;startFill=1;endFill=0;strokeColor=#3333FF;" parent="VzMmww4hq2OdrxLp2IZ8-1" edge="1">
          <mxGeometry x="490.5" y="287.74999999999994" width="50" height="50" as="geometry">
            <mxPoint x="550" y="388" as="sourcePoint" />
            <mxPoint x="807.5" y="527.75" as="targetPoint" />
          </mxGeometry>
        </mxCell>
        <mxCell id="DimUQ4nAoNdwlKg9loN--21" value="" style="endArrow=classic;html=1;anchorPointDirection=0;strokeWidth=3;strokeColor=#3333FF;" parent="VzMmww4hq2OdrxLp2IZ8-1" edge="1">
          <mxGeometry x="473" y="279.74999999999994" width="50" height="50" as="geometry">
            <mxPoint x="1230" y="487" as="sourcePoint" />
            <mxPoint x="970" y="537.75" as="targetPoint" />
          </mxGeometry>
        </mxCell>
        <mxCell id="XqB7qCd38xZJttWv_QUp-0" value="" style="group;spacing=2;" vertex="1" connectable="0" parent="VzMmww4hq2OdrxLp2IZ8-1">
          <mxGeometry x="1260" y="419.99999999999994" width="146.69" height="67.71000000000001" as="geometry" />
        </mxCell>
        <mxCell id="XqB7qCd38xZJttWv_QUp-1" value="" style="shape=cube;whiteSpace=wrap;html=1;boundedLbl=1;backgroundOutline=1;darkOpacity=0.05;darkOpacity2=0.1;rotation=90;size=11;fillColor=#e1d5e7;strokeColor=#9673a6;" vertex="1" parent="XqB7qCd38xZJttWv_QUp-0">
          <mxGeometry x="39.49000000000002" y="-39.48999999999997" width="67.71" height="146.69" as="geometry" />
        </mxCell>
        <mxCell id="XqB7qCd38xZJttWv_QUp-2" value="&lt;div style=&quot;font-size: 21px&quot;&gt;&lt;font style=&quot;font-size: 21px&quot;&gt;writer&amp;nbsp;&lt;/font&gt;&lt;span style=&quot;font-size: 21px&quot;&gt;service&lt;/span&gt;&lt;/div&gt;" style="text;html=1;strokeColor=none;fillColor=none;align=center;verticalAlign=middle;whiteSpace=wrap;rounded=0;fontSize=21;" vertex="1" parent="XqB7qCd38xZJttWv_QUp-0">
          <mxGeometry y="10" width="140" height="57.71" as="geometry" />
        </mxCell>
        <mxCell id="evQIbbGXkyum-uztT6Az-0" value="" style="group;spacing=2;fontSize=10;" vertex="1" connectable="0" parent="VzMmww4hq2OdrxLp2IZ8-1">
          <mxGeometry x="826.66" y="676.71" width="146.69" height="67.71000000000001" as="geometry" />
        </mxCell>
        <mxCell id="evQIbbGXkyum-uztT6Az-1" value="" style="shape=cube;whiteSpace=wrap;html=1;boundedLbl=1;backgroundOutline=1;darkOpacity=0.05;darkOpacity2=0.1;rotation=90;size=11;fillColor=#e1d5e7;strokeColor=#9673a6;" vertex="1" parent="evQIbbGXkyum-uztT6Az-0">
          <mxGeometry x="39.49000000000002" y="-39.48999999999997" width="67.71" height="146.69" as="geometry" />
        </mxCell>
        <mxCell id="evQIbbGXkyum-uztT6Az-2" value="&lt;div style=&quot;font-size: 15px;&quot;&gt;&lt;font style=&quot;font-size: 15px;&quot;&gt;post-processing&lt;br style=&quot;font-size: 15px;&quot;&gt;&amp;nbsp;&lt;/font&gt;&lt;span style=&quot;font-size: 15px;&quot;&gt;service&lt;/span&gt;&lt;/div&gt;" style="text;html=1;strokeColor=none;fillColor=none;align=center;verticalAlign=middle;whiteSpace=wrap;rounded=0;fontSize=15;" vertex="1" parent="evQIbbGXkyum-uztT6Az-0">
          <mxGeometry x="10" y="10" width="110" height="57.71" as="geometry" />
        </mxCell>
        <mxCell id="7UTrnp6SV6PkS4lXfdSj-1" value="" style="endArrow=none;html=1;anchorPointDirection=0;strokeWidth=3;startArrow=classic;startFill=1;endFill=0;strokeColor=#3333FF;" edge="1" parent="VzMmww4hq2OdrxLp2IZ8-1">
          <mxGeometry x="489" y="300.74999999999994" width="50" height="50" as="geometry">
            <mxPoint x="520" y="588" as="sourcePoint" />
            <mxPoint x="806" y="540.75" as="targetPoint" />
          </mxGeometry>
        </mxCell>
        <mxCell id="-GpdedVLCLPbzYfR2iLi-10" value="" style="group" vertex="1" connectable="0" parent="VzMmww4hq2OdrxLp2IZ8-1">
          <mxGeometry x="985" y="140" width="220" height="110" as="geometry" />
        </mxCell>
        <mxCell id="-GpdedVLCLPbzYfR2iLi-7" value="&lt;h1 style=&quot;font-size: 14px&quot;&gt;&lt;font style=&quot;font-size: 14px&quot;&gt;+ communication bridge&lt;br&gt;&lt;/font&gt;&lt;/h1&gt;&lt;p&gt;Forwards message between users and services on a &lt;b&gt;PUB/SUB&lt;/b&gt; model.&lt;/p&gt;" style="text;html=1;strokeColor=none;fillColor=none;spacing=5;spacingTop=-20;whiteSpace=wrap;overflow=hidden;rounded=0;fontColor=#000000;" vertex="1" parent="-GpdedVLCLPbzYfR2iLi-10">
          <mxGeometry y="50" width="220" height="60" as="geometry" />
        </mxCell>
        <mxCell id="-GpdedVLCLPbzYfR2iLi-8" value="" style="rounded=0;whiteSpace=wrap;html=1;fillColor=#dae8fc;strokeColor=#6c8ebf;" vertex="1" parent="-GpdedVLCLPbzYfR2iLi-10">
          <mxGeometry y="30" width="218.55" height="10" as="geometry" />
        </mxCell>
        <mxCell id="-GpdedVLCLPbzYfR2iLi-9" value="&lt;font style=&quot;font-size: 20px&quot;&gt;Broker&lt;/font&gt;" style="text;html=1;strokeColor=none;fillColor=none;align=left;verticalAlign=middle;whiteSpace=wrap;rounded=0;fontColor=#000000;fontStyle=1" vertex="1" parent="-GpdedVLCLPbzYfR2iLi-10">
          <mxGeometry x="2.762941958351803" width="213.03057155516174" height="30" as="geometry" />
        </mxCell>
        <mxCell id="iKAE5Y1we3Hz1MnT8BTH-0" value="" style="group" vertex="1" connectable="0" parent="VzMmww4hq2OdrxLp2IZ8-1">
          <mxGeometry x="1050" y="570" width="220" height="170" as="geometry" />
        </mxCell>
        <mxCell id="-GpdedVLCLPbzYfR2iLi-1" value="&lt;h1 style=&quot;font-size: 14px&quot;&gt;&lt;font style=&quot;font-size: 14px&quot;&gt;+ executes requests&lt;br&gt;+ generates status updates&lt;/font&gt;&lt;/h1&gt;&lt;p&gt;Works on the requests in the requests exchange and updates the progress of the execution in the status exchange. Execution can be stopped with a kill request.&lt;/p&gt;" style="text;html=1;strokeColor=none;fillColor=none;spacing=5;spacingTop=-20;whiteSpace=wrap;overflow=hidden;rounded=0;fontColor=#000000;" vertex="1" parent="iKAE5Y1we3Hz1MnT8BTH-0">
          <mxGeometry y="47.22222222222222" width="220" height="122.77777777777777" as="geometry" />
        </mxCell>
        <mxCell id="-GpdedVLCLPbzYfR2iLi-2" value="" style="rounded=0;whiteSpace=wrap;html=1;fillColor=#e1d5e7;strokeColor=#9673a6;" vertex="1" parent="iKAE5Y1we3Hz1MnT8BTH-0">
          <mxGeometry y="28.333333333333332" width="218.55" height="9.444444444444445" as="geometry" />
        </mxCell>
        <mxCell id="-GpdedVLCLPbzYfR2iLi-3" value="&lt;font style=&quot;font-size: 20px&quot;&gt;Service&lt;/font&gt;" style="text;html=1;strokeColor=none;fillColor=none;align=left;verticalAlign=middle;whiteSpace=wrap;rounded=0;fontColor=#000000;fontStyle=1" vertex="1" parent="iKAE5Y1we3Hz1MnT8BTH-0">
          <mxGeometry x="2.762941958351803" width="213.03057155516174" height="28.333333333333332" as="geometry" />
        </mxCell>
        <mxCell id="zHWwXKN5nMeh_sB7nN2L-0" value="" style="group" vertex="1" connectable="0" parent="VzMmww4hq2OdrxLp2IZ8-1">
          <mxGeometry x="150" y="130" width="210" height="170" as="geometry" />
        </mxCell>
        <mxCell id="zHWwXKN5nMeh_sB7nN2L-1" value="" style="rounded=0;whiteSpace=wrap;html=1;fontSize=15;align=center;dashed=1;" vertex="1" parent="zHWwXKN5nMeh_sB7nN2L-0">
          <mxGeometry width="210" height="170" as="geometry" />
        </mxCell>
        <mxCell id="zHWwXKN5nMeh_sB7nN2L-2" value="&lt;h1&gt;&lt;font style=&quot;font-size: 24px&quot;&gt;request JSON&lt;/font&gt;&lt;/h1&gt;&lt;p&gt;{&lt;br&gt;&amp;nbsp; &amp;nbsp; &lt;b&gt;service1&lt;/b&gt;: { ...config... }&lt;br&gt;&amp;nbsp; &amp;nbsp; &lt;b&gt;service2&lt;/b&gt;: { ...config... }&lt;br&gt;&amp;nbsp; &amp;nbsp; ....&lt;br&gt;}&lt;/p&gt;" style="text;html=1;strokeColor=none;fillColor=none;spacing=5;spacingTop=-20;whiteSpace=wrap;overflow=hidden;rounded=0;fontSize=15;fontColor=#000000;align=left;" vertex="1" parent="zHWwXKN5nMeh_sB7nN2L-0">
          <mxGeometry x="15" y="1.9318181818181814" width="185" height="166.13636363636365" as="geometry" />
        </mxCell>
        <mxCell id="zHWwXKN5nMeh_sB7nN2L-3" value="" style="group" vertex="1" connectable="0" parent="VzMmww4hq2OdrxLp2IZ8-1">
          <mxGeometry x="470" y="157.71" width="220" height="120" as="geometry" />
        </mxCell>
        <mxCell id="zHWwXKN5nMeh_sB7nN2L-4" value="" style="rounded=0;whiteSpace=wrap;html=1;fontSize=15;align=center;dashed=1;" vertex="1" parent="zHWwXKN5nMeh_sB7nN2L-3">
          <mxGeometry width="220" height="120.00000000000001" as="geometry" />
        </mxCell>
        <mxCell id="zHWwXKN5nMeh_sB7nN2L-5" value="&lt;h1&gt;&lt;font style=&quot;font-size: 23px&quot;&gt;request message&lt;/font&gt;&lt;/h1&gt;&lt;p&gt;header: { &lt;b&gt;request_id&lt;/b&gt; }&lt;br&gt;body: { request JSON }&lt;/p&gt;" style="text;html=1;strokeColor=none;fillColor=none;spacing=5;spacingTop=-20;whiteSpace=wrap;overflow=hidden;rounded=0;fontSize=15;fontColor=#000000;align=left;" vertex="1" parent="zHWwXKN5nMeh_sB7nN2L-3">
          <mxGeometry x="10" y="1.36" width="199.52" height="108.64" as="geometry" />
        </mxCell>
        <mxCell id="DimUQ4nAoNdwlKg9loN--5" value="" style="group" parent="VzMmww4hq2OdrxLp2IZ8-1" vertex="1" connectable="0">
          <mxGeometry x="70" y="470" width="140" height="210" as="geometry" />
        </mxCell>
        <mxCell id="DimUQ4nAoNdwlKg9loN--6" value="" style="shape=actor;whiteSpace=wrap;html=1;strokeColor=#000000;strokeWidth=3;fillColor=#E6E6E6;fontSize=36;fontColor=#000000;align=left;" parent="DimUQ4nAoNdwlKg9loN--5" vertex="1">
          <mxGeometry x="20" width="100.00000000000001" height="140" as="geometry" />
        </mxCell>
        <mxCell id="DimUQ4nAoNdwlKg9loN--7" value="User" style="text;html=1;strokeColor=none;fillColor=none;align=center;verticalAlign=middle;whiteSpace=wrap;rounded=0;fontSize=30;fontColor=#000000;" parent="DimUQ4nAoNdwlKg9loN--5" vertex="1">
          <mxGeometry y="150" width="140" height="59.99999999999999" as="geometry" />
        </mxCell>
        <mxCell id="CBfMrzALFHtiS-pDQfti-2" value="" style="group" vertex="1" connectable="0" parent="VzMmww4hq2OdrxLp2IZ8-1">
          <mxGeometry x="330.00499999999994" y="327.71" width="209.99500000000006" height="179.9000000000001" as="geometry" />
        </mxCell>
        <mxCell id="IZeg6sU7kUxtg0Yet8v4-1" value="" style="rounded=0;whiteSpace=wrap;html=1;fillColor=#fff2cc;strokeColor=#d6b656;" parent="CBfMrzALFHtiS-pDQfti-2" vertex="1">
          <mxGeometry x="19.99500000000006" y="2.842170943040401e-14" width="190" height="170" as="geometry" />
        </mxCell>
        <mxCell id="IZeg6sU7kUxtg0Yet8v4-2" value="BrokerClient" style="rounded=0;whiteSpace=wrap;html=1;" parent="CBfMrzALFHtiS-pDQfti-2" vertex="1">
          <mxGeometry x="119.99500000000006" y="25.00000000000003" width="80" height="37.5" as="geometry" />
        </mxCell>
        <mxCell id="IZeg6sU7kUxtg0Yet8v4-3" value="StatusAggregator" style="rounded=0;whiteSpace=wrap;html=1;fontSize=9;" parent="CBfMrzALFHtiS-pDQfti-2" vertex="1">
          <mxGeometry x="119.99500000000006" y="117.50000000000006" width="80" height="37.5" as="geometry" />
        </mxCell>
        <mxCell id="IZeg6sU7kUxtg0Yet8v4-5" value="" style="endArrow=none;html=1;anchorPointDirection=0;strokeWidth=3;startArrow=classic;startFill=1;endFill=0;strokeColor=#3333FF;" parent="CBfMrzALFHtiS-pDQfti-2" edge="1">
          <mxGeometry x="-310.00499999999994" y="-172.49999999999994" width="50" height="50" as="geometry">
            <mxPoint x="159.99500000000006" y="107.50000000000006" as="sourcePoint" />
            <mxPoint x="159.99500000000006" y="67.5" as="targetPoint" />
          </mxGeometry>
        </mxCell>
        <mxCell id="IZeg6sU7kUxtg0Yet8v4-15" value="" style="group" parent="CBfMrzALFHtiS-pDQfti-2" vertex="1" connectable="0">
          <mxGeometry x="99.99500000000006" y="35.00000000000003" width="0.4800000000000182" height="17.5" as="geometry" />
        </mxCell>
        <mxCell id="IZeg6sU7kUxtg0Yet8v4-9" value="" style="endArrow=classic;html=1;fontSize=14;" parent="IZeg6sU7kUxtg0Yet8v4-15" edge="1">
          <mxGeometry x="-89.995" y="-17.5" width="50" height="50" as="geometry">
            <mxPoint x="-10" as="sourcePoint" />
            <mxPoint x="10" as="targetPoint" />
            <Array as="points">
              <mxPoint />
            </Array>
          </mxGeometry>
        </mxCell>
        <mxCell id="IZeg6sU7kUxtg0Yet8v4-14" value="" style="endArrow=classic;html=1;fontSize=14;" parent="IZeg6sU7kUxtg0Yet8v4-15" edge="1">
          <mxGeometry x="-89.51499999999999" width="50" height="50" as="geometry">
            <mxPoint x="10.480000000000018" y="17.5" as="sourcePoint" />
            <mxPoint x="-9.519999999999982" y="17.5" as="targetPoint" />
            <Array as="points">
              <mxPoint x="0.4800000000000182" y="17.5" />
            </Array>
          </mxGeometry>
        </mxCell>
        <mxCell id="IZeg6sU7kUxtg0Yet8v4-16" value="" style="group" parent="CBfMrzALFHtiS-pDQfti-2" vertex="1" connectable="0">
          <mxGeometry x="99.99500000000006" y="127.50000000000006" width="0.4800000000000182" height="17.5" as="geometry" />
        </mxCell>
        <mxCell id="IZeg6sU7kUxtg0Yet8v4-17" value="" style="endArrow=classic;html=1;fontSize=14;" parent="IZeg6sU7kUxtg0Yet8v4-16" edge="1">
          <mxGeometry x="-89.995" y="-17.5" width="50" height="50" as="geometry">
            <mxPoint x="-10" as="sourcePoint" />
            <mxPoint x="10" as="targetPoint" />
            <Array as="points">
              <mxPoint />
            </Array>
          </mxGeometry>
        </mxCell>
        <mxCell id="IZeg6sU7kUxtg0Yet8v4-18" value="" style="endArrow=classic;html=1;fontSize=14;" parent="IZeg6sU7kUxtg0Yet8v4-16" edge="1">
          <mxGeometry x="-89.51499999999999" width="50" height="50" as="geometry">
            <mxPoint x="10.480000000000018" y="17.5" as="sourcePoint" />
            <mxPoint x="-9.519999999999982" y="17.5" as="targetPoint" />
            <Array as="points">
              <mxPoint x="0.4800000000000182" y="17.5" />
            </Array>
          </mxGeometry>
        </mxCell>
        <mxCell id="CBfMrzALFHtiS-pDQfti-1" value="" style="group" vertex="1" connectable="0" parent="CBfMrzALFHtiS-pDQfti-2">
          <mxGeometry width="76.37500000000006" height="179.9000000000001" as="geometry" />
        </mxCell>
        <mxCell id="CBfMrzALFHtiS-pDQfti-0" value="" style="shape=cube;whiteSpace=wrap;html=1;boundedLbl=1;backgroundOutline=1;darkOpacity=0.05;darkOpacity2=0.1;fontSize=21;size=10;rotation=90;direction=north;fillColor=#fff2cc;strokeColor=#d6b656;flipV=1;" vertex="1" parent="CBfMrzALFHtiS-pDQfti-1">
          <mxGeometry x="-68.33499999999995" y="70.57000000000005" width="179.9" height="38.76" as="geometry" />
        </mxCell>
        <mxCell id="IZeg6sU7kUxtg0Yet8v4-4" value="" style="shape=cube;whiteSpace=wrap;html=1;boundedLbl=1;backgroundOutline=1;darkOpacity=0.05;darkOpacity2=0.1;fontSize=21;size=10;rotation=90;direction=north;fillColor=#fff2cc;strokeColor=#d6b656;flipV=1;" parent="CBfMrzALFHtiS-pDQfti-1" vertex="1">
          <mxGeometry x="-38.19499999999995" y="65.33000000000004" width="179.9" height="49.24" as="geometry" />
        </mxCell>
        <mxCell id="IZeg6sU7kUxtg0Yet8v4-7" value="&lt;font style=&quot;font-size: 14px&quot;&gt;Manager&lt;br style=&quot;font-size: 14px&quot;&gt;&lt;/font&gt;" style="text;html=1;strokeColor=none;fillColor=none;align=center;verticalAlign=middle;whiteSpace=wrap;rounded=0;fontSize=14;rotation=-90;" parent="CBfMrzALFHtiS-pDQfti-1" vertex="1">
          <mxGeometry x="-31.514999999999944" y="82.55000000000001" width="154.14" height="33.36" as="geometry" />
        </mxCell>
        <mxCell id="DimUQ4nAoNdwlKg9loN--11" value="&lt;font style=&quot;font-size: 14px&quot;&gt;REST interface&lt;br style=&quot;font-size: 14px&quot;&gt;&lt;/font&gt;" style="text;html=1;strokeColor=none;fillColor=none;align=center;verticalAlign=middle;whiteSpace=wrap;rounded=0;fontSize=14;rotation=-90;" parent="CBfMrzALFHtiS-pDQfti-1" vertex="1">
          <mxGeometry x="-48.05499999999998" y="84.75000000000006" width="125.06" height="28.95" as="geometry" />
        </mxCell>
        <mxCell id="nS304p2w9-hdn98wvz2I-0" value="" style="shape=flexArrow;endArrow=classic;html=1;fontSize=15;fontColor=#000000;strokeColor=#000000;startArrow=block;width=8.4;startSize=4.156000000000001;endSize=4.86;startWidth=13.440000000000001;endWidth=13.440000000000001;" edge="1" parent="VzMmww4hq2OdrxLp2IZ8-1">
          <mxGeometry x="140" y="327.71" width="50" height="50" as="geometry">
            <mxPoint x="210" y="520" as="sourcePoint" />
            <mxPoint x="320" y="487.71000000000004" as="targetPoint" />
          </mxGeometry>
        </mxCell>
        <mxCell id="nS304p2w9-hdn98wvz2I-1" value="" style="shape=flexArrow;endArrow=none;html=1;fontSize=15;fontColor=#000000;strokeColor=#000000;endFill=0;startArrow=block;width=9.2;startSize=4.136;startWidth=15.52;" edge="1" parent="VzMmww4hq2OdrxLp2IZ8-1">
          <mxGeometry x="140" y="327.71" width="50" height="50" as="geometry">
            <mxPoint x="210" y="570" as="sourcePoint" />
            <mxPoint x="320" y="587.71" as="targetPoint" />
          </mxGeometry>
        </mxCell>
        <mxCell id="JYNQeHs-nlCAznPs-Qjt-0" value="" style="group" vertex="1" connectable="0" parent="VzMmww4hq2OdrxLp2IZ8-1">
          <mxGeometry x="330" y="650.0000000000001" width="250" height="170" as="geometry" />
        </mxCell>
        <mxCell id="JYNQeHs-nlCAznPs-Qjt-4" value="&lt;h1 style=&quot;font-size: 14px&quot;&gt;&lt;font style=&quot;font-size: 14px&quot;&gt;+ generates requests&lt;br&gt;+ listens for status updates&lt;/font&gt;&lt;/h1&gt;&lt;p&gt;Interfaces the broker with the user via REST api. Provides libraries for direct access to the broker.&lt;/p&gt;" style="text;html=1;strokeColor=none;fillColor=none;spacing=5;spacingTop=-20;whiteSpace=wrap;overflow=hidden;rounded=0;fontColor=#000000;" vertex="1" parent="JYNQeHs-nlCAznPs-Qjt-0">
          <mxGeometry y="50" width="250" height="120" as="geometry" />
        </mxCell>
        <mxCell id="JYNQeHs-nlCAznPs-Qjt-2" value="" style="rounded=0;whiteSpace=wrap;html=1;fillColor=#fff2cc;strokeColor=#d6b656;" vertex="1" parent="JYNQeHs-nlCAznPs-Qjt-0">
          <mxGeometry y="30" width="218.55" height="10" as="geometry" />
        </mxCell>
        <mxCell id="JYNQeHs-nlCAznPs-Qjt-3" value="&lt;font style=&quot;font-size: 20px&quot;&gt;User interface&lt;/font&gt;" style="text;html=1;strokeColor=none;fillColor=none;align=left;verticalAlign=middle;whiteSpace=wrap;rounded=0;fontColor=#000000;fontStyle=1" vertex="1" parent="JYNQeHs-nlCAznPs-Qjt-0">
          <mxGeometry x="2.762941958351777" width="213.03057155516174" height="30" as="geometry" />
        </mxCell>
        <mxCell id="CmepuZA4o34nY47ATjXA-1" value="" style="group" vertex="1" connectable="0" parent="VzMmww4hq2OdrxLp2IZ8-1">
          <mxGeometry x="330" y="550" width="179.49" height="67.71000000000004" as="geometry" />
        </mxCell>
        <mxCell id="GJUsq7scLCusfgSS16E3-1" value="" style="shape=cube;whiteSpace=wrap;html=1;boundedLbl=1;backgroundOutline=1;darkOpacity=0.05;darkOpacity2=0.1;rotation=90;size=11;fillColor=#fff2cc;strokeColor=#d6b656;" vertex="1" parent="CmepuZA4o34nY47ATjXA-1">
          <mxGeometry x="55.889999999999986" y="-55.889999999999986" width="67.71" height="179.49" as="geometry" />
        </mxCell>
        <mxCell id="GJUsq7scLCusfgSS16E3-2" value="&lt;div style=&quot;font-size: 15px&quot;&gt;listener&lt;/div&gt;" style="text;html=1;strokeColor=none;fillColor=none;align=center;verticalAlign=middle;whiteSpace=wrap;rounded=0;fontSize=15;" vertex="1" parent="CmepuZA4o34nY47ATjXA-1">
          <mxGeometry y="10" width="80" height="57.71" as="geometry" />
        </mxCell>
        <mxCell id="CmepuZA4o34nY47ATjXA-0" value="BrokerClient" style="rounded=0;whiteSpace=wrap;html=1;" vertex="1" parent="CmepuZA4o34nY47ATjXA-1">
          <mxGeometry x="80" y="20.110000000000014" width="80" height="37.5" as="geometry" />
        </mxCell>
        <mxCell id="m8T5Q0JDa14xXn-e9z6T-0" value="" style="endArrow=none;html=1;fontSize=15;fontColor=#000000;strokeColor=#000000;dashed=1;" edge="1" parent="VzMmww4hq2OdrxLp2IZ8-1">
          <mxGeometry width="50" height="50" relative="1" as="geometry">
            <mxPoint x="260" y="310" as="sourcePoint" />
            <mxPoint x="260" y="490" as="targetPoint" />
          </mxGeometry>
        </mxCell>
        <mxCell id="m8T5Q0JDa14xXn-e9z6T-1" value="" style="endArrow=none;html=1;fontSize=15;fontColor=#000000;strokeColor=#000000;dashed=1;" edge="1" parent="VzMmww4hq2OdrxLp2IZ8-1">
          <mxGeometry width="50" height="50" relative="1" as="geometry">
            <mxPoint x="580" y="290" as="sourcePoint" />
            <mxPoint x="650" y="360" as="targetPoint" />
          </mxGeometry>
        </mxCell>
        <mxCell id="m8T5Q0JDa14xXn-e9z6T-2" value="" style="group" vertex="1" connectable="0" parent="VzMmww4hq2OdrxLp2IZ8-1">
          <mxGeometry x="1290" y="530" width="220" height="260" as="geometry" />
        </mxCell>
        <mxCell id="m8T5Q0JDa14xXn-e9z6T-3" value="" style="rounded=0;whiteSpace=wrap;html=1;fontSize=15;align=center;dashed=1;" vertex="1" parent="m8T5Q0JDa14xXn-e9z6T-2">
          <mxGeometry width="220" height="260.00000000000006" as="geometry" />
        </mxCell>
        <mxCell id="m8T5Q0JDa14xXn-e9z6T-4" value="&lt;h1&gt;&lt;font style=&quot;font-size: 23px&quot;&gt;status message&lt;/font&gt;&lt;/h1&gt;&lt;p&gt;header: { &lt;br&gt;&lt;b&gt;&amp;nbsp; &lt;/b&gt;request_id&lt;b&gt;,&lt;/b&gt;&lt;br&gt;&amp;nbsp; message: {&lt;br&gt;&amp;nbsp; &amp;nbsp; &lt;b&gt;source&lt;/b&gt;: &#39;write service&#39;,&lt;br&gt;&amp;nbsp; &amp;nbsp; &lt;b&gt;action&lt;/b&gt;: &#39;FINISHED&#39;,&lt;br&gt;&amp;nbsp; &amp;nbsp; &lt;b&gt;message&lt;/b&gt;: {}&lt;br&gt;&lt;span&gt;&amp;nbsp; }&lt;br&gt;}&lt;/span&gt;&lt;/p&gt;&lt;p&gt;body: {&lt;b&gt; &lt;/b&gt;request JSON&lt;b&gt; &lt;/b&gt;}&lt;/p&gt;" style="text;html=1;strokeColor=none;fillColor=none;spacing=5;spacingTop=-20;whiteSpace=wrap;overflow=hidden;rounded=0;fontSize=15;fontColor=#000000;align=left;" vertex="1" parent="m8T5Q0JDa14xXn-e9z6T-2">
          <mxGeometry x="10" y="2.9493750000000003" width="199.52" height="240.80062500000003" as="geometry" />
        </mxCell>
        <mxCell id="kiX2Vx9o7Ru_5acFNRWb-0" value="" style="endArrow=none;html=1;fontSize=15;fontColor=#000000;strokeColor=#000000;dashed=1;" edge="1" parent="VzMmww4hq2OdrxLp2IZ8-1">
          <mxGeometry width="50" height="50" relative="1" as="geometry">
            <mxPoint x="1170" y="510" as="sourcePoint" />
            <mxPoint x="1280" y="550" as="targetPoint" />
          </mxGeometry>
        </mxCell>
        <mxCell id="WeLArnrpqaZbmIF7zyjG-6" value="" style="group" vertex="1" connectable="0" parent="VzMmww4hq2OdrxLp2IZ8-1">
          <mxGeometry x="1310" y="130" width="200" height="220" as="geometry" />
        </mxCell>
        <mxCell id="pUWqclivlRCLkFa2Jk1p-5" value="" style="group;fillColor=#ffffff;container=0;" vertex="1" connectable="0" parent="WeLArnrpqaZbmIF7zyjG-6">
          <mxGeometry y="22.710000000000036" width="200" height="155" as="geometry" />
        </mxCell>
        <mxCell id="xZTOjxPakmMn5eMtJhpr-0" value="Legend" style="text;html=1;strokeColor=none;fillColor=none;align=center;verticalAlign=middle;whiteSpace=wrap;rounded=0;fontSize=15;fontColor=#000000;" vertex="1" parent="WeLArnrpqaZbmIF7zyjG-6">
          <mxGeometry x="133.30999999999995" width="66.69" height="22.71" as="geometry" />
        </mxCell>
        <mxCell id="xGn-6BnAJXzIaRca6t8G-13" value="" style="rounded=0;whiteSpace=wrap;html=1;fontSize=14;" parent="WeLArnrpqaZbmIF7zyjG-6" vertex="1">
          <mxGeometry y="22.710000000000008" width="200" height="197.29" as="geometry" />
        </mxCell>
        <mxCell id="kTVzJiDjP4Z4jr9k3HB4-13" value="" style="group" vertex="1" connectable="0" parent="WeLArnrpqaZbmIF7zyjG-6">
          <mxGeometry x="104.15000000000009" y="79.7050000000001" width="80" height="47.74500000000012" as="geometry" />
        </mxCell>
        <mxCell id="kTVzJiDjP4Z4jr9k3HB4-11" value="" style="shape=cube;whiteSpace=wrap;html=1;boundedLbl=1;backgroundOutline=1;darkOpacity=0.05;darkOpacity2=0.1;rotation=90;size=6;direction=east;flipV=0;flipH=0;" vertex="1" parent="kTVzJiDjP4Z4jr9k3HB4-13">
          <mxGeometry x="26.8599999999999" y="-25.404999999999973" width="26.28" height="77.09" as="geometry" />
        </mxCell>
        <mxCell id="kTVzJiDjP4Z4jr9k3HB4-12" value="service" style="text;html=1;strokeColor=none;fillColor=none;align=center;verticalAlign=middle;whiteSpace=wrap;rounded=0;" vertex="1" parent="kTVzJiDjP4Z4jr9k3HB4-13">
          <mxGeometry y="24.74500000000012" width="80" height="20" as="geometry" />
        </mxCell>
        <mxCell id="kTVzJiDjP4Z4jr9k3HB4-21" value="" style="group" vertex="1" connectable="0" parent="WeLArnrpqaZbmIF7zyjG-6">
          <mxGeometry x="102.15000000000009" y="34.710000000000036" width="82.29999999999995" height="38.54000000000019" as="geometry" />
        </mxCell>
        <mxCell id="kTVzJiDjP4Z4jr9k3HB4-15" value="" style="shape=cylinder3;whiteSpace=wrap;html=1;boundedLbl=1;backgroundOutline=1;size=8.736206896551607;fontSize=22;fontColor=#000000;align=left;rotation=90;container=0;" vertex="1" parent="kTVzJiDjP4Z4jr9k3HB4-21">
          <mxGeometry x="34.35000000000002" y="-31.350000000000023" width="19.6" height="82.3" as="geometry" />
        </mxCell>
        <mxCell id="kTVzJiDjP4Z4jr9k3HB4-20" value="exchange" style="text;html=1;strokeColor=none;fillColor=none;align=center;verticalAlign=middle;whiteSpace=wrap;rounded=0;" vertex="1" parent="kTVzJiDjP4Z4jr9k3HB4-21">
          <mxGeometry x="4.149999999999977" y="18.54000000000019" width="80" height="20" as="geometry" />
        </mxCell>
        <mxCell id="D_m5AzHTIP7DvLNV243_-0" value="" style="group;align=left;" vertex="1" connectable="0" parent="WeLArnrpqaZbmIF7zyjG-6">
          <mxGeometry x="10" y="42.73000000000002" width="80" height="22.5" as="geometry" />
        </mxCell>
        <mxCell id="xGn-6BnAJXzIaRca6t8G-0" value="" style="endArrow=classic;html=1;anchorPointDirection=0;strokeWidth=3;" parent="D_m5AzHTIP7DvLNV243_-0" edge="1">
          <mxGeometry x="-180" y="-100" width="50" height="50" as="geometry">
            <mxPoint as="sourcePoint" />
            <mxPoint x="80" as="targetPoint" />
          </mxGeometry>
        </mxCell>
        <mxCell id="xGn-6BnAJXzIaRca6t8G-1" value="write request" style="text;html=1;strokeColor=none;fillColor=none;align=left;verticalAlign=middle;whiteSpace=wrap;rounded=0;fontColor=#000000;fontSize=12;" parent="D_m5AzHTIP7DvLNV243_-0" vertex="1">
          <mxGeometry y="2.5" width="80" height="20" as="geometry" />
        </mxCell>
        <mxCell id="D_m5AzHTIP7DvLNV243_-1" value="" style="group;align=left;" vertex="1" connectable="0" parent="WeLArnrpqaZbmIF7zyjG-6">
          <mxGeometry x="10" y="92.33000000000004" width="80" height="22.5" as="geometry" />
        </mxCell>
        <mxCell id="D_m5AzHTIP7DvLNV243_-2" value="" style="endArrow=classic;html=1;anchorPointDirection=0;strokeWidth=3;dashed=1;" edge="1" parent="D_m5AzHTIP7DvLNV243_-1">
          <mxGeometry x="-180" y="-100" width="50" height="50" as="geometry">
            <mxPoint as="sourcePoint" />
            <mxPoint x="80" as="targetPoint" />
          </mxGeometry>
        </mxCell>
        <mxCell id="D_m5AzHTIP7DvLNV243_-3" value="kill request" style="text;html=1;strokeColor=none;fillColor=none;align=left;verticalAlign=middle;whiteSpace=wrap;rounded=0;fontColor=#000000;fontSize=12;" vertex="1" parent="D_m5AzHTIP7DvLNV243_-1">
          <mxGeometry y="2.5" width="80" height="20" as="geometry" />
        </mxCell>
        <mxCell id="D_m5AzHTIP7DvLNV243_-4" value="" style="group;align=left;" vertex="1" connectable="0" parent="WeLArnrpqaZbmIF7zyjG-6">
          <mxGeometry x="10" y="141.51000000000005" width="80" height="22.5" as="geometry" />
        </mxCell>
        <mxCell id="D_m5AzHTIP7DvLNV243_-5" value="" style="endArrow=classic;html=1;anchorPointDirection=0;strokeWidth=3;strokeColor=#3333FF;" edge="1" parent="D_m5AzHTIP7DvLNV243_-4">
          <mxGeometry x="-180" y="-100" width="50" height="50" as="geometry">
            <mxPoint as="sourcePoint" />
            <mxPoint x="80" as="targetPoint" />
          </mxGeometry>
        </mxCell>
        <mxCell id="D_m5AzHTIP7DvLNV243_-6" value="status update" style="text;html=1;strokeColor=none;fillColor=none;align=left;verticalAlign=middle;whiteSpace=wrap;rounded=0;fontColor=#000000;fontSize=12;" vertex="1" parent="D_m5AzHTIP7DvLNV243_-4">
          <mxGeometry y="2.5" width="80" height="20" as="geometry" />
        </mxCell>
        <mxCell id="pUWqclivlRCLkFa2Jk1p-4" value="" style="group" vertex="1" connectable="0" parent="WeLArnrpqaZbmIF7zyjG-6">
          <mxGeometry x="103.29999999999995" y="131.71000000000004" width="80" height="42.09000000000026" as="geometry" />
        </mxCell>
        <mxCell id="pUWqclivlRCLkFa2Jk1p-0" value="" style="rounded=0;whiteSpace=wrap;html=1;fontSize=9;" vertex="1" parent="pUWqclivlRCLkFa2Jk1p-4">
          <mxGeometry x="5" width="70" height="22.09" as="geometry" />
        </mxCell>
        <mxCell id="pUWqclivlRCLkFa2Jk1p-3" value="class" style="text;html=1;strokeColor=none;fillColor=none;align=center;verticalAlign=middle;whiteSpace=wrap;rounded=0;" vertex="1" parent="pUWqclivlRCLkFa2Jk1p-4">
          <mxGeometry y="20.09000000000026" width="80" height="20" as="geometry" />
        </mxCell>
        <mxCell id="nS304p2w9-hdn98wvz2I-6" value="" style="group" vertex="1" connectable="0" parent="WeLArnrpqaZbmIF7zyjG-6">
          <mxGeometry x="5" y="184.00999999999993" width="90" height="29.5" as="geometry" />
        </mxCell>
        <mxCell id="nS304p2w9-hdn98wvz2I-2" value="" style="shape=flexArrow;endArrow=none;html=1;fontSize=15;fontColor=#000000;strokeColor=#000000;endFill=0;startArrow=block;width=6.8;startSize=4.096;startWidth=12.88;" edge="1" parent="nS304p2w9-hdn98wvz2I-6">
          <mxGeometry width="50" height="50" relative="1" as="geometry">
            <mxPoint x="83" y="-1" as="sourcePoint" />
            <mxPoint x="3" y="-1" as="targetPoint" />
          </mxGeometry>
        </mxCell>
        <mxCell id="nS304p2w9-hdn98wvz2I-5" value="user interaction" style="text;html=1;strokeColor=none;fillColor=none;align=left;verticalAlign=middle;whiteSpace=wrap;rounded=0;fontColor=#000000;fontSize=12;" vertex="1" parent="nS304p2w9-hdn98wvz2I-6">
          <mxGeometry y="9.5" width="90" height="20" as="geometry" />
        </mxCell>
        <mxCell id="WeLArnrpqaZbmIF7zyjG-0" value="" style="group" vertex="1" connectable="0" parent="WeLArnrpqaZbmIF7zyjG-6">
          <mxGeometry x="103.29999999999995" y="177.71000000000004" width="80" height="42.09000000000026" as="geometry" />
        </mxCell>
        <mxCell id="WeLArnrpqaZbmIF7zyjG-1" value="" style="rounded=0;whiteSpace=wrap;html=1;fontSize=9;dashed=1;" vertex="1" parent="WeLArnrpqaZbmIF7zyjG-0">
          <mxGeometry x="5" width="70" height="22.09" as="geometry" />
        </mxCell>
        <mxCell id="WeLArnrpqaZbmIF7zyjG-2" value="protocol" style="text;html=1;strokeColor=none;fillColor=none;align=center;verticalAlign=middle;whiteSpace=wrap;rounded=0;" vertex="1" parent="WeLArnrpqaZbmIF7zyjG-0">
          <mxGeometry y="20.09000000000026" width="80" height="20" as="geometry" />
        </mxCell>
      </root>
    </mxGraphModel>
  </diagram>
  <diagram id="LLWE_lJp5c9PDb6zXkUz" name="detector_data_flow">
    <mxGraphModel dx="2498" dy="2745" grid="1" gridSize="10" guides="1" tooltips="1" connect="1" arrows="1" fold="1" page="1" pageScale="1" pageWidth="1600" pageHeight="900" math="0" shadow="0">
      <root>
        <mxCell id="0" />
        <mxCell id="1" parent="0" />
        <mxCell id="xz4rLBF5K8dxZVSBUItQ-146" value="" style="ellipse;shape=cloud;whiteSpace=wrap;html=1;fontSize=10;align=center;fillColor=#f5f5f5;strokeColor=#666666;fontColor=#333333;direction=east;" parent="1" vertex="1">
          <mxGeometry x="1071.05" y="700" width="130" height="100" as="geometry" />
        </mxCell>
        <mxCell id="xz4rLBF5K8dxZVSBUItQ-6" style="edgeStyle=orthogonalEdgeStyle;rounded=0;orthogonalLoop=1;jettySize=auto;html=1;startArrow=none;startFill=0;fontSize=16;endArrow=classic;endFill=1;strokeWidth=3;strokeColor=#FF0000;" parent="1" edge="1">
          <mxGeometry relative="1" as="geometry">
            <mxPoint x="160" y="280" as="sourcePoint" />
            <mxPoint x="310" y="520" as="targetPoint" />
            <Array as="points">
              <mxPoint x="160" y="280" />
              <mxPoint x="160" y="460" />
              <mxPoint x="310" y="460" />
            </Array>
          </mxGeometry>
        </mxCell>
        <mxCell id="xz4rLBF5K8dxZVSBUItQ-7" value="" style="group" parent="1" vertex="1" connectable="0">
          <mxGeometry x="80" y="298.28" width="160" height="128.85000000000002" as="geometry" />
        </mxCell>
        <mxCell id="xz4rLBF5K8dxZVSBUItQ-8" value="" style="rounded=0;whiteSpace=wrap;html=1;fontSize=15;fillColor=#ffff88;strokeColor=none;" parent="xz4rLBF5K8dxZVSBUItQ-7" vertex="1">
          <mxGeometry width="160" height="128.85" as="geometry" />
        </mxCell>
        <mxCell id="xz4rLBF5K8dxZVSBUItQ-9" value="&lt;b&gt;RawMetadata&lt;/b&gt;" style="text;html=1;strokeColor=none;fillColor=none;align=center;verticalAlign=middle;whiteSpace=wrap;rounded=0;fontSize=15;" parent="xz4rLBF5K8dxZVSBUItQ-7" vertex="1">
          <mxGeometry width="160" height="38.18" as="geometry" />
        </mxCell>
        <mxCell id="xz4rLBF5K8dxZVSBUItQ-10" value="uint64_t &lt;b&gt;id&lt;/b&gt;&lt;br&gt;uint64_t &lt;b&gt;pulse_id&lt;/b&gt;&lt;br style=&quot;font-size: 12px&quot;&gt;uint64_t&amp;nbsp;&lt;b&gt;frame_index&lt;/b&gt;&lt;br style=&quot;font-size: 12px&quot;&gt;uint64_t&amp;nbsp;&lt;b&gt;daq_rec&lt;/b&gt;&lt;br style=&quot;font-size: 12px&quot;&gt;uint64_t &lt;b&gt;status&lt;/b&gt;" style="text;html=1;strokeColor=none;fillColor=none;align=left;verticalAlign=top;whiteSpace=wrap;rounded=0;fontSize=12;" parent="xz4rLBF5K8dxZVSBUItQ-7" vertex="1">
          <mxGeometry x="10" y="40" width="140" height="78.85" as="geometry" />
        </mxCell>
        <mxCell id="xz4rLBF5K8dxZVSBUItQ-11" value="" style="group" parent="1" vertex="1" connectable="0">
          <mxGeometry x="350" y="10.000000000000028" width="567" height="332.30999999999995" as="geometry" />
        </mxCell>
        <mxCell id="xz4rLBF5K8dxZVSBUItQ-12" value="" style="rounded=0;whiteSpace=wrap;html=1;fillColor=#ffff88;strokeColor=#36393d;" parent="xz4rLBF5K8dxZVSBUItQ-11" vertex="1">
          <mxGeometry width="567" height="332.31" as="geometry" />
        </mxCell>
        <mxCell id="xz4rLBF5K8dxZVSBUItQ-13" value="FrameBuffer" style="text;html=1;strokeColor=none;fillColor=none;align=left;verticalAlign=middle;whiteSpace=wrap;rounded=0;fontSize=25;" parent="xz4rLBF5K8dxZVSBUItQ-11" vertex="1">
          <mxGeometry x="17" width="240" height="40" as="geometry" />
        </mxCell>
        <mxCell id="xz4rLBF5K8dxZVSBUItQ-14" value="" style="group" parent="xz4rLBF5K8dxZVSBUItQ-11" vertex="1" connectable="0">
          <mxGeometry x="237" y="80" width="130" height="170" as="geometry" />
        </mxCell>
        <mxCell id="xz4rLBF5K8dxZVSBUItQ-15" value="" style="rounded=0;whiteSpace=wrap;html=1;fontSize=12;align=left;fillColor=#ffe6cc;strokeColor=#d79b00;" parent="xz4rLBF5K8dxZVSBUItQ-14" vertex="1">
          <mxGeometry width="129.99999999999994" height="170" as="geometry" />
        </mxCell>
        <mxCell id="xz4rLBF5K8dxZVSBUItQ-16" value="frame data" style="text;html=1;strokeColor=none;fillColor=none;align=center;verticalAlign=middle;whiteSpace=wrap;rounded=0;fontSize=15;" parent="xz4rLBF5K8dxZVSBUItQ-14" vertex="1">
          <mxGeometry width="129.99999999999994" height="30.909090909090907" as="geometry" />
        </mxCell>
        <mxCell id="xz4rLBF5K8dxZVSBUItQ-17" value="1000101010001&lt;br&gt;1011000101010&lt;br&gt;0001011000101&lt;br&gt;1010001011000&lt;br&gt;1010001011000" style="text;html=1;strokeColor=none;fillColor=none;align=left;verticalAlign=middle;whiteSpace=wrap;rounded=0;fontSize=12;" parent="xz4rLBF5K8dxZVSBUItQ-14" vertex="1">
          <mxGeometry x="18.669999999999998" y="46.36363636363636" width="111.33" height="108.18181818181817" as="geometry" />
        </mxCell>
        <mxCell id="xz4rLBF5K8dxZVSBUItQ-18" value="" style="rounded=0;whiteSpace=wrap;html=1;fontSize=15;fillColor=#fff2cc;strokeColor=#d6b656;" parent="xz4rLBF5K8dxZVSBUItQ-11" vertex="1">
          <mxGeometry x="17" y="80" width="160" height="170" as="geometry" />
        </mxCell>
        <mxCell id="xz4rLBF5K8dxZVSBUItQ-19" value="&lt;b&gt;ModuleFrame&lt;/b&gt;" style="text;html=1;strokeColor=none;fillColor=none;align=center;verticalAlign=middle;whiteSpace=wrap;rounded=0;fontSize=15;" parent="xz4rLBF5K8dxZVSBUItQ-11" vertex="1">
          <mxGeometry x="17" y="80" width="160" height="38.18" as="geometry" />
        </mxCell>
        <mxCell id="xz4rLBF5K8dxZVSBUItQ-20" value="uint64_t &lt;b&gt;id&lt;/b&gt;&lt;br&gt;uint64_t &lt;b&gt;pulse_id&lt;/b&gt;&lt;br style=&quot;font-size: 12px&quot;&gt;uint64_t&amp;nbsp;&lt;b&gt;frame_index&lt;/b&gt;&lt;br style=&quot;font-size: 12px&quot;&gt;uint64_t&amp;nbsp;&lt;b&gt;daq_rec&lt;/b&gt;&lt;br style=&quot;font-size: 12px&quot;&gt;uint64_t&amp;nbsp;&lt;b&gt;n_recv_packets&lt;/b&gt;&lt;br style=&quot;font-size: 12px&quot;&gt;uint64_t&amp;nbsp;&lt;b&gt;module_id&lt;/b&gt;&lt;br&gt;uint64_t &lt;b&gt;pos_y&lt;/b&gt;&lt;br&gt;uint64_t &lt;b&gt;pos_x&lt;/b&gt;" style="text;html=1;strokeColor=none;fillColor=none;align=left;verticalAlign=top;whiteSpace=wrap;rounded=0;fontSize=12;" parent="xz4rLBF5K8dxZVSBUItQ-11" vertex="1">
          <mxGeometry x="27" y="120" width="140" height="120" as="geometry" />
        </mxCell>
        <mxCell id="xz4rLBF5K8dxZVSBUItQ-21" value="..." style="rounded=0;whiteSpace=wrap;html=1;fontSize=15;fillColor=#fff2cc;strokeColor=#d6b656;" parent="xz4rLBF5K8dxZVSBUItQ-11" vertex="1">
          <mxGeometry x="177" y="80" width="30" height="170" as="geometry" />
        </mxCell>
        <mxCell id="xz4rLBF5K8dxZVSBUItQ-22" value="..." style="rounded=0;whiteSpace=wrap;html=1;fontSize=15;fillColor=#fff2cc;strokeColor=#d6b656;" parent="xz4rLBF5K8dxZVSBUItQ-11" vertex="1">
          <mxGeometry x="207" y="80" width="30" height="170" as="geometry" />
        </mxCell>
        <mxCell id="xz4rLBF5K8dxZVSBUItQ-23" value="..." style="rounded=0;whiteSpace=wrap;html=1;fontSize=15;fillColor=#ffe6cc;strokeColor=#d79b00;" parent="xz4rLBF5K8dxZVSBUItQ-11" vertex="1">
          <mxGeometry x="367" y="80" width="30" height="170" as="geometry" />
        </mxCell>
        <mxCell id="xz4rLBF5K8dxZVSBUItQ-24" value="..." style="rounded=0;whiteSpace=wrap;html=1;fontSize=15;fillColor=#ffe6cc;strokeColor=#d79b00;" parent="xz4rLBF5K8dxZVSBUItQ-11" vertex="1">
          <mxGeometry x="397" y="80" width="30" height="170" as="geometry" />
        </mxCell>
        <mxCell id="xz4rLBF5K8dxZVSBUItQ-25" value="..." style="rounded=0;whiteSpace=wrap;html=1;fontSize=15;fillColor=#fff2cc;strokeColor=#d6b656;" parent="xz4rLBF5K8dxZVSBUItQ-11" vertex="1">
          <mxGeometry x="437" y="80" width="50" height="170" as="geometry" />
        </mxCell>
        <mxCell id="xz4rLBF5K8dxZVSBUItQ-26" value="..." style="rounded=0;whiteSpace=wrap;html=1;fontSize=15;fillColor=#fff2cc;strokeColor=#d6b656;" parent="xz4rLBF5K8dxZVSBUItQ-11" vertex="1">
          <mxGeometry x="497" y="80" width="50" height="170" as="geometry" />
        </mxCell>
        <mxCell id="xz4rLBF5K8dxZVSBUItQ-27" value="..." style="rounded=0;whiteSpace=wrap;html=1;fontSize=16;align=center;" parent="xz4rLBF5K8dxZVSBUItQ-11" vertex="1">
          <mxGeometry x="497" y="250" width="50" height="60" as="geometry" />
        </mxCell>
        <mxCell id="xz4rLBF5K8dxZVSBUItQ-28" value="" style="group" parent="xz4rLBF5K8dxZVSBUItQ-11" vertex="1" connectable="0">
          <mxGeometry x="17" y="45" width="530" height="24.659999999999968" as="geometry" />
        </mxCell>
        <mxCell id="xz4rLBF5K8dxZVSBUItQ-29" value="" style="endArrow=classic;startArrow=classic;html=1;fontSize=16;startFill=1;" parent="xz4rLBF5K8dxZVSBUItQ-28" edge="1">
          <mxGeometry width="50" height="50" relative="1" as="geometry">
            <mxPoint x="530" y="24.659999999999968" as="sourcePoint" />
            <mxPoint y="24.659999999999968" as="targetPoint" />
          </mxGeometry>
        </mxCell>
        <mxCell id="xz4rLBF5K8dxZVSBUItQ-30" value="n_slots" style="text;html=1;strokeColor=none;fillColor=none;align=center;verticalAlign=middle;whiteSpace=wrap;rounded=0;fontSize=16;" parent="xz4rLBF5K8dxZVSBUItQ-28" vertex="1">
          <mxGeometry x="254" width="40" height="20" as="geometry" />
        </mxCell>
        <mxCell id="xz4rLBF5K8dxZVSBUItQ-31" value="..." style="rounded=0;whiteSpace=wrap;html=1;fontSize=16;align=center;" parent="xz4rLBF5K8dxZVSBUItQ-11" vertex="1">
          <mxGeometry x="437" y="250" width="50" height="60" as="geometry" />
        </mxCell>
        <mxCell id="xz4rLBF5K8dxZVSBUItQ-32" value="&lt;font style=&quot;font-size: 16px&quot;&gt;unassembled frames for single image&lt;/font&gt;" style="rounded=0;whiteSpace=wrap;html=1;fontSize=16;align=center;verticalAlign=bottom;" parent="xz4rLBF5K8dxZVSBUItQ-11" vertex="1">
          <mxGeometry x="17" y="250" width="410" height="60" as="geometry" />
        </mxCell>
        <mxCell id="xz4rLBF5K8dxZVSBUItQ-33" value="" style="endArrow=classic;startArrow=classic;html=1;fontSize=16;startFill=1;" parent="xz4rLBF5K8dxZVSBUItQ-11" edge="1">
          <mxGeometry width="50" height="50" relative="1" as="geometry">
            <mxPoint x="427" y="279.65999999999997" as="sourcePoint" />
            <mxPoint x="237" y="279.65999999999997" as="targetPoint" />
          </mxGeometry>
        </mxCell>
        <mxCell id="xz4rLBF5K8dxZVSBUItQ-34" value="n_modules" style="text;html=1;strokeColor=none;fillColor=none;align=center;verticalAlign=middle;whiteSpace=wrap;rounded=0;fontSize=16;" parent="xz4rLBF5K8dxZVSBUItQ-11" vertex="1">
          <mxGeometry x="312" y="255" width="40" height="20" as="geometry" />
        </mxCell>
        <mxCell id="xz4rLBF5K8dxZVSBUItQ-35" value="" style="endArrow=classic;startArrow=classic;html=1;fontSize=16;startFill=1;" parent="xz4rLBF5K8dxZVSBUItQ-11" edge="1">
          <mxGeometry width="50" height="50" relative="1" as="geometry">
            <mxPoint x="237" y="279.65999999999997" as="sourcePoint" />
            <mxPoint x="17" y="279.65999999999997" as="targetPoint" />
          </mxGeometry>
        </mxCell>
        <mxCell id="xz4rLBF5K8dxZVSBUItQ-36" value="n_modules" style="text;html=1;strokeColor=none;fillColor=none;align=center;verticalAlign=middle;whiteSpace=wrap;rounded=0;fontSize=16;" parent="xz4rLBF5K8dxZVSBUItQ-11" vertex="1">
          <mxGeometry x="111.1" y="255" width="40" height="20" as="geometry" />
        </mxCell>
        <mxCell id="xz4rLBF5K8dxZVSBUItQ-37" value="" style="endArrow=none;html=1;fontSize=16;entryX=1;entryY=1;entryDx=0;entryDy=0;" parent="xz4rLBF5K8dxZVSBUItQ-11" target="xz4rLBF5K8dxZVSBUItQ-22" edge="1">
          <mxGeometry width="50" height="50" relative="1" as="geometry">
            <mxPoint x="237" y="280" as="sourcePoint" />
            <mxPoint x="227" y="220" as="targetPoint" />
          </mxGeometry>
        </mxCell>
        <mxCell id="xz4rLBF5K8dxZVSBUItQ-38" value="" style="group;fillColor=#cdeb8b;strokeColor=#36393d;" parent="1" vertex="1" connectable="0">
          <mxGeometry x="590" y="430" width="400" height="330" as="geometry" />
        </mxCell>
        <mxCell id="xz4rLBF5K8dxZVSBUItQ-39" value="&lt;span style=&quot;color: rgba(0 , 0 , 0 , 0) ; font-family: monospace ; font-size: 0px&quot;&gt;%3CmxGraphModel%3E%3Croot%3E%3CmxCell%20id%3D%220%22%2F%3E%3CmxCell%20id%3D%221%22%20parent%3D%220%22%2F%3E%3CmxCell%20id%3D%222%22%20value%3D%22%22%20style%3D%22group%22%20vertex%3D%221%22%20connectable%3D%220%22%20parent%3D%221%22%3E%3CmxGeometry%20x%3D%2213%22%20y%3D%22230%22%20width%3D%22580.9%22%20height%3D%22332.30999999999995%22%20as%3D%22geometry%22%2F%3E%3C%2FmxCell%3E%3CmxCell%20id%3D%223%22%20value%3D%22%22%20style%3D%22rounded%3D0%3BwhiteSpace%3Dwrap%3Bhtml%3D1%3B%22%20vertex%3D%221%22%20parent%3D%222%22%3E%3CmxGeometry%20width%3D%22580.9%22%20height%3D%22332.31%22%20as%3D%22geometry%22%2F%3E%3C%2FmxCell%3E%3CmxCell%20id%3D%224%22%20value%3D%22FrameBuffer%22%20style%3D%22text%3Bhtml%3D1%3BstrokeColor%3Dnone%3BfillColor%3Dnone%3Balign%3Dleft%3BverticalAlign%3Dmiddle%3BwhiteSpace%3Dwrap%3Brounded%3D0%3BfontSize%3D25%3B%22%20vertex%3D%221%22%20parent%3D%222%22%3E%3CmxGeometry%20x%3D%2217%22%20width%3D%22240%22%20height%3D%2240%22%20as%3D%22geometry%22%2F%3E%3C%2FmxCell%3E%3CmxCell%20id%3D%225%22%20value%3D%22%22%20style%3D%22group%22%20vertex%3D%221%22%20connectable%3D%220%22%20parent%3D%222%22%3E%3CmxGeometry%20x%3D%22237%22%20y%3D%2280%22%20width%3D%22130%22%20height%3D%22170%22%20as%3D%22geometry%22%2F%3E%3C%2FmxCell%3E%3CmxCell%20id%3D%226%22%20value%3D%22%22%20style%3D%22rounded%3D0%3BwhiteSpace%3Dwrap%3Bhtml%3D1%3BfontSize%3D12%3Balign%3Dleft%3BfillColor%3D%23ffe6cc%3BstrokeColor%3D%23d79b00%3B%22%20vertex%3D%221%22%20parent%3D%225%22%3E%3CmxGeometry%20width%3D%22129.99999999999994%22%20height%3D%22170%22%20as%3D%22geometry%22%2F%3E%3C%2FmxCell%3E%3CmxCell%20id%3D%227%22%20value%3D%22frame%20data%22%20style%3D%22text%3Bhtml%3D1%3BstrokeColor%3Dnone%3BfillColor%3Dnone%3Balign%3Dcenter%3BverticalAlign%3Dmiddle%3BwhiteSpace%3Dwrap%3Brounded%3D0%3BfontSize%3D15%3B%22%20vertex%3D%221%22%20parent%3D%225%22%3E%3CmxGeometry%20width%3D%22129.99999999999994%22%20height%3D%2230.909090909090907%22%20as%3D%22geometry%22%2F%3E%3C%2FmxCell%3E%3CmxCell%20id%3D%228%22%20value%3D%221000101010001%26lt%3Bbr%26gt%3B1011000101010%26lt%3Bbr%26gt%3B0001011000101%26lt%3Bbr%26gt%3B1010001011000%26lt%3Bbr%26gt%3B1010001011000%22%20style%3D%22text%3Bhtml%3D1%3BstrokeColor%3Dnone%3BfillColor%3Dnone%3Balign%3Dleft%3BverticalAlign%3Dmiddle%3BwhiteSpace%3Dwrap%3Brounded%3D0%3BfontSize%3D12%3B%22%20vertex%3D%221%22%20parent%3D%225%22%3E%3CmxGeometry%20x%3D%2218.669999999999998%22%20y%3D%2246.36363636363636%22%20width%3D%22111.33%22%20height%3D%22108.18181818181817%22%20as%3D%22geometry%22%2F%3E%3C%2FmxCell%3E%3CmxCell%20id%3D%229%22%20value%3D%22%22%20style%3D%22rounded%3D0%3BwhiteSpace%3Dwrap%3Bhtml%3D1%3BfontSize%3D15%3BfillColor%3D%23fff2cc%3BstrokeColor%3D%23d6b656%3B%22%20vertex%3D%221%22%20parent%3D%222%22%3E%3CmxGeometry%20x%3D%2217%22%20y%3D%2280%22%20width%3D%22160%22%20height%3D%22170%22%20as%3D%22geometry%22%2F%3E%3C%2FmxCell%3E%3CmxCell%20id%3D%2210%22%20value%3D%22%26lt%3Bb%26gt%3BModuleFrame%26lt%3B%2Fb%26gt%3B%22%20style%3D%22text%3Bhtml%3D1%3BstrokeColor%3Dnone%3BfillColor%3Dnone%3Balign%3Dcenter%3BverticalAlign%3Dmiddle%3BwhiteSpace%3Dwrap%3Brounded%3D0%3BfontSize%3D15%3B%22%20vertex%3D%221%22%20parent%3D%222%22%3E%3CmxGeometry%20x%3D%2217%22%20y%3D%2280%22%20width%3D%22160%22%20height%3D%2238.18%22%20as%3D%22geometry%22%2F%3E%3C%2FmxCell%3E%3CmxCell%20id%3D%2211%22%20value%3D%22uint64_t%20%26lt%3Bb%26gt%3Bid%26lt%3B%2Fb%26gt%3B%26lt%3Bbr%26gt%3Buint64_t%20%26lt%3Bb%26gt%3Bpulse_id%26lt%3B%2Fb%26gt%3B%26lt%3Bbr%20style%3D%26quot%3Bfont-size%3A%2012px%26quot%3B%26gt%3Buint64_t%26amp%3Bnbsp%3B%26lt%3Bb%26gt%3Bframe_index%26lt%3B%2Fb%26gt%3B%26lt%3Bbr%20style%3D%26quot%3Bfont-size%3A%2012px%26quot%3B%26gt%3Buint64_t%26amp%3Bnbsp%3B%26lt%3Bb%26gt%3Bdaq_rec%26lt%3B%2Fb%26gt%3B%26lt%3Bbr%20style%3D%26quot%3Bfont-size%3A%2012px%26quot%3B%26gt%3Buint64_t%26amp%3Bnbsp%3B%26lt%3Bb%26gt%3Bn_recv_packets%26lt%3B%2Fb%26gt%3B%26lt%3Bbr%20style%3D%26quot%3Bfont-size%3A%2012px%26quot%3B%26gt%3Buint64_t%26amp%3Bnbsp%3B%26lt%3Bb%26gt%3Bmodule_id%26lt%3B%2Fb%26gt%3B%26lt%3Bbr%26gt%3Buint64_t%20%26lt%3Bb%26gt%3Bpos_y%26lt%3B%2Fb%26gt%3B%26lt%3Bbr%26gt%3Buint64_t%20%26lt%3Bb%26gt%3Bpos_x%26lt%3B%2Fb%26gt%3B%22%20style%3D%22text%3Bhtml%3D1%3BstrokeColor%3Dnone%3BfillColor%3Dnone%3Balign%3Dleft%3BverticalAlign%3Dtop%3BwhiteSpace%3Dwrap%3Brounded%3D0%3BfontSize%3D12%3B%22%20vertex%3D%221%22%20parent%3D%222%22%3E%3CmxGeometry%20x%3D%2227%22%20y%3D%22120%22%20width%3D%22140%22%20height%3D%22120%22%20as%3D%22geometry%22%2F%3E%3C%2FmxCell%3E%3CmxCell%20id%3D%2212%22%20value%3D%22...%22%20style%3D%22rounded%3D0%3BwhiteSpace%3Dwrap%3Bhtml%3D1%3BfontSize%3D15%3BfillColor%3D%23fff2cc%3BstrokeColor%3D%23d6b656%3B%22%20vertex%3D%221%22%20parent%3D%222%22%3E%3CmxGeometry%20x%3D%22177%22%20y%3D%2280%22%20width%3D%2230%22%20height%3D%22170%22%20as%3D%22geometry%22%2F%3E%3C%2FmxCell%3E%3CmxCell%20id%3D%2213%22%20value%3D%22...%22%20style%3D%22rounded%3D0%3BwhiteSpace%3Dwrap%3Bhtml%3D1%3BfontSize%3D15%3BfillColor%3D%23fff2cc%3BstrokeColor%3D%23d6b656%3B%22%20vertex%3D%221%22%20parent%3D%222%22%3E%3CmxGeometry%20x%3D%22207%22%20y%3D%2280%22%20width%3D%2230%22%20height%3D%22170%22%20as%3D%22geometry%22%2F%3E%3C%2FmxCell%3E%3CmxCell%20id%3D%2214%22%20value%3D%22...%22%20style%3D%22rounded%3D0%3BwhiteSpace%3Dwrap%3Bhtml%3D1%3BfontSize%3D15%3BfillColor%3D%23ffe6cc%3BstrokeColor%3D%23d79b00%3B%22%20vertex%3D%221%22%20parent%3D%222%22%3E%3CmxGeometry%20x%3D%22367%22%20y%3D%2280%22%20width%3D%2230%22%20height%3D%22170%22%20as%3D%22geometry%22%2F%3E%3C%2FmxCell%3E%3CmxCell%20id%3D%2215%22%20value%3D%22...%22%20style%3D%22rounded%3D0%3BwhiteSpace%3Dwrap%3Bhtml%3D1%3BfontSize%3D15%3BfillColor%3D%23ffe6cc%3BstrokeColor%3D%23d79b00%3B%22%20vertex%3D%221%22%20parent%3D%222%22%3E%3CmxGeometry%20x%3D%22397%22%20y%3D%2280%22%20width%3D%2230%22%20height%3D%22170%22%20as%3D%22geometry%22%2F%3E%3C%2FmxCell%3E%3CmxCell%20id%3D%2216%22%20value%3D%22...%22%20style%3D%22rounded%3D0%3BwhiteSpace%3Dwrap%3Bhtml%3D1%3BfontSize%3D15%3BfillColor%3D%23fff2cc%3BstrokeColor%3D%23d6b656%3B%22%20vertex%3D%221%22%20parent%3D%222%22%3E%3CmxGeometry%20x%3D%22437%22%20y%3D%2280%22%20width%3D%2250%22%20height%3D%22170%22%20as%3D%22geometry%22%2F%3E%3C%2FmxCell%3E%3CmxCell%20id%3D%2217%22%20value%3D%22...%22%20style%3D%22rounded%3D0%3BwhiteSpace%3Dwrap%3Bhtml%3D1%3BfontSize%3D15%3BfillColor%3D%23fff2cc%3BstrokeColor%3D%23d6b656%3B%22%20vertex%3D%221%22%20parent%3D%222%22%3E%3CmxGeometry%20x%3D%22497%22%20y%3D%2280%22%20width%3D%2250%22%20height%3D%22170%22%20as%3D%22geometry%22%2F%3E%3C%2FmxCell%3E%3CmxCell%20id%3D%2218%22%20value%3D%22...%22%20style%3D%22rounded%3D0%3BwhiteSpace%3Dwrap%3Bhtml%3D1%3BfontSize%3D16%3Balign%3Dcenter%3B%22%20vertex%3D%221%22%20parent%3D%222%22%3E%3CmxGeometry%20x%3D%22497%22%20y%3D%22250%22%20width%3D%2250%22%20height%3D%2260%22%20as%3D%22geometry%22%2F%3E%3C%2FmxCell%3E%3CmxCell%20id%3D%2219%22%20value%3D%22%22%20style%3D%22group%22%20vertex%3D%221%22%20connectable%3D%220%22%20parent%3D%222%22%3E%3CmxGeometry%20x%3D%2217%22%20y%3D%2245%22%20width%3D%22530%22%20height%3D%2224.659999999999968%22%20as%3D%22geometry%22%2F%3E%3C%2FmxCell%3E%3CmxCell%20id%3D%2220%22%20value%3D%22%22%20style%3D%22endArrow%3Dclassic%3BstartArrow%3Dclassic%3Bhtml%3D1%3BfontSize%3D16%3BstartFill%3D1%3B%22%20edge%3D%221%22%20parent%3D%2219%22%3E%3CmxGeometry%20width%3D%2250%22%20height%3D%2250%22%20relative%3D%221%22%20as%3D%22geometry%22%3E%3CmxPoint%20x%3D%22530%22%20y%3D%2224.659999999999968%22%20as%3D%22sourcePoint%22%2F%3E%3CmxPoint%20y%3D%2224.659999999999968%22%20as%3D%22targetPoint%22%2F%3E%3C%2FmxGeometry%3E%3C%2FmxCell%3E%3CmxCell%20id%3D%2221%22%20value%3D%22n_slots%22%20style%3D%22text%3Bhtml%3D1%3BstrokeColor%3Dnone%3BfillColor%3Dnone%3Balign%3Dcenter%3BverticalAlign%3Dmiddle%3BwhiteSpace%3Dwrap%3Brounded%3D0%3BfontSize%3D16%3B%22%20vertex%3D%221%22%20parent%3D%2219%22%3E%3CmxGeometry%20x%3D%22254%22%20width%3D%2240%22%20height%3D%2220%22%20as%3D%22geometry%22%2F%3E%3C%2FmxCell%3E%3CmxCell%20id%3D%2222%22%20value%3D%22...%22%20style%3D%22rounded%3D0%3BwhiteSpace%3Dwrap%3Bhtml%3D1%3BfontSize%3D16%3Balign%3Dcenter%3B%22%20vertex%3D%221%22%20parent%3D%222%22%3E%3CmxGeometry%20x%3D%22437%22%20y%3D%22250%22%20width%3D%2250%22%20height%3D%2260%22%20as%3D%22geometry%22%2F%3E%3C%2FmxCell%3E%3CmxCell%20id%3D%2223%22%20value%3D%22%26lt%3Bfont%20style%3D%26quot%3Bfont-size%3A%2016px%26quot%3B%26gt%3Bunassembled%20frames%20for%20single%20image%26lt%3B%2Ffont%26gt%3B%22%20style%3D%22rounded%3D0%3BwhiteSpace%3Dwrap%3Bhtml%3D1%3BfontSize%3D16%3Balign%3Dcenter%3BverticalAlign%3Dbottom%3B%22%20vertex%3D%221%22%20parent%3D%222%22%3E%3CmxGeometry%20x%3D%2217%22%20y%3D%22250%22%20width%3D%22410%22%20height%3D%2260%22%20as%3D%22geometry%22%2F%3E%3C%2FmxCell%3E%3CmxCell%20id%3D%2224%22%20value%3D%22%22%20style%3D%22endArrow%3Dclassic%3BstartArrow%3Dclassic%3Bhtml%3D1%3BfontSize%3D16%3BstartFill%3D1%3B%22%20edge%3D%221%22%20parent%3D%222%22%3E%3CmxGeometry%20width%3D%2250%22%20height%3D%2250%22%20relative%3D%221%22%20as%3D%22geometry%22%3E%3CmxPoint%20x%3D%22427%22%20y%3D%22279.65999999999997%22%20as%3D%22sourcePoint%22%2F%3E%3CmxPoint%20x%3D%22237%22%20y%3D%22279.65999999999997%22%20as%3D%22targetPoint%22%2F%3E%3C%2FmxGeometry%3E%3C%2FmxCell%3E%3CmxCell%20id%3D%2225%22%20value%3D%22n_modules%22%20style%3D%22text%3Bhtml%3D1%3BstrokeColor%3Dnone%3BfillColor%3Dnone%3Balign%3Dcenter%3BverticalAlign%3Dmiddle%3BwhiteSpace%3Dwrap%3Brounded%3D0%3BfontSize%3D16%3B%22%20vertex%3D%221%22%20parent%3D%222%22%3E%3CmxGeometry%20x%3D%22312%22%20y%3D%22255%22%20width%3D%2240%22%20height%3D%2220%22%20as%3D%22geometry%22%2F%3E%3C%2FmxCell%3E%3CmxCell%20id%3D%2226%22%20value%3D%22%22%20style%3D%22endArrow%3Dclassic%3BstartArrow%3Dclassic%3Bhtml%3D1%3BfontSize%3D16%3BstartFill%3D1%3B%22%20edge%3D%221%22%20parent%3D%222%22%3E%3CmxGeometry%20width%3D%2250%22%20height%3D%2250%22%20relative%3D%221%22%20as%3D%22geometry%22%3E%3CmxPoint%20x%3D%22237%22%20y%3D%22279.65999999999997%22%20as%3D%22sourcePoint%22%2F%3E%3CmxPoint%20x%3D%2217%22%20y%3D%22279.65999999999997%22%20as%3D%22targetPoint%22%2F%3E%3C%2FmxGeometry%3E%3C%2FmxCell%3E%3CmxCell%20id%3D%2227%22%20value%3D%22n_modules%22%20style%3D%22text%3Bhtml%3D1%3BstrokeColor%3Dnone%3BfillColor%3Dnone%3Balign%3Dcenter%3BverticalAlign%3Dmiddle%3BwhiteSpace%3Dwrap%3Brounded%3D0%3BfontSize%3D16%3B%22%20vertex%3D%221%22%20parent%3D%222%22%3E%3CmxGeometry%20x%3D%22111.1%22%20y%3D%22255%22%20width%3D%2240%22%20height%3D%2220%22%20as%3D%22geometry%22%2F%3E%3C%2FmxCell%3E%3CmxCell%20id%3D%2228%22%20value%3D%22%22%20style%3D%22endArrow%3Dnone%3Bhtml%3D1%3BfontSize%3D16%3BentryX%3D1%3BentryY%3D1%3BentryDx%3D0%3BentryDy%3D0%3B%22%20edge%3D%221%22%20parent%3D%222%22%20target%3D%2213%22%3E%3CmxGeometry%20width%3D%2250%22%20height%3D%2250%22%20relative%3D%221%22%20as%3D%22geometry%22%3E%3CmxPoint%20x%3D%22237%22%20y%3D%22280%22%20as%3D%22sourcePoint%22%2F%3E%3CmxPoint%20x%3D%22227%22%20y%3D%22220%22%20as%3D%22targetPoint%22%2F%3E%3C%2FmxGeometry%3E%3C%2FmxCell%3E%3C%2Froot%3E%3C%2FmxGraphModel%3E&lt;/span&gt;" style="rounded=0;whiteSpace=wrap;html=1;fillColor=#cdeb8b;strokeColor=#36393d;" parent="xz4rLBF5K8dxZVSBUItQ-38" vertex="1">
          <mxGeometry width="400" height="330" as="geometry" />
        </mxCell>
        <mxCell id="xz4rLBF5K8dxZVSBUItQ-40" value="" style="rounded=0;whiteSpace=wrap;html=1;fontSize=15;fillColor=#d5e8d4;strokeColor=#82b366;" parent="xz4rLBF5K8dxZVSBUItQ-38" vertex="1">
          <mxGeometry x="20" y="86.40999999999997" width="160" height="185" as="geometry" />
        </mxCell>
        <mxCell id="xz4rLBF5K8dxZVSBUItQ-41" value="&lt;b&gt;ImageMetadata&lt;/b&gt;" style="text;html=1;strokeColor=none;fillColor=none;align=center;verticalAlign=middle;whiteSpace=wrap;rounded=0;fontSize=15;" parent="xz4rLBF5K8dxZVSBUItQ-38" vertex="1">
          <mxGeometry x="20" y="86.40999999999997" width="160" height="38.18" as="geometry" />
        </mxCell>
        <mxCell id="xz4rLBF5K8dxZVSBUItQ-42" value="uint64_t &lt;b&gt;id&lt;/b&gt;&lt;br&gt;uint64_t &lt;b&gt;height&lt;/b&gt;&lt;br style=&quot;font-size: 12px&quot;&gt;uint64_t &lt;b&gt;width&lt;/b&gt;&lt;br style=&quot;font-size: 12px&quot;&gt;uint64_t&amp;nbsp;&lt;b&gt;dtype&lt;/b&gt;&lt;br style=&quot;font-size: 12px&quot;&gt;uint64_t &lt;b&gt;encoding&lt;/b&gt;&lt;br style=&quot;font-size: 12px&quot;&gt;uint64_t &lt;b&gt;source_id&lt;/b&gt;&lt;br&gt;uint64_t &lt;b&gt;status&lt;/b&gt;&lt;br&gt;uint64_t &lt;b&gt;user_1&lt;/b&gt;&lt;br&gt;uint64_t &lt;b&gt;user_2&lt;/b&gt;" style="text;html=1;strokeColor=none;fillColor=none;align=left;verticalAlign=top;whiteSpace=wrap;rounded=0;fontSize=12;" parent="xz4rLBF5K8dxZVSBUItQ-38" vertex="1">
          <mxGeometry x="30" y="126.40999999999997" width="140" height="120" as="geometry" />
        </mxCell>
        <mxCell id="xz4rLBF5K8dxZVSBUItQ-43" value="" style="group" parent="xz4rLBF5K8dxZVSBUItQ-38" vertex="1" connectable="0">
          <mxGeometry x="180" y="86.40999999999997" width="130" height="180" as="geometry" />
        </mxCell>
        <mxCell id="xz4rLBF5K8dxZVSBUItQ-44" value="" style="group" parent="xz4rLBF5K8dxZVSBUItQ-43" vertex="1" connectable="0">
          <mxGeometry width="130" height="180" as="geometry" />
        </mxCell>
        <mxCell id="xz4rLBF5K8dxZVSBUItQ-45" value="" style="rounded=0;whiteSpace=wrap;html=1;fontSize=12;align=left;fillColor=#60a917;strokeColor=#2D7600;fontColor=#ffffff;" parent="xz4rLBF5K8dxZVSBUItQ-44" vertex="1">
          <mxGeometry width="130" height="185" as="geometry" />
        </mxCell>
        <mxCell id="xz4rLBF5K8dxZVSBUItQ-46" value="&lt;b&gt;&lt;font color=&quot;#ffffff&quot;&gt;image data&lt;/font&gt;&lt;/b&gt;" style="text;html=1;strokeColor=none;fillColor=none;align=center;verticalAlign=middle;whiteSpace=wrap;rounded=0;fontSize=15;" parent="xz4rLBF5K8dxZVSBUItQ-44" vertex="1">
          <mxGeometry width="129.99999999999994" height="30.909090909090907" as="geometry" />
        </mxCell>
        <mxCell id="xz4rLBF5K8dxZVSBUItQ-47" value="1000101010001&lt;br&gt;1011000101010&lt;br&gt;0001011000101&lt;br&gt;1010001011000&lt;br&gt;1010001011000" style="text;html=1;strokeColor=none;fillColor=none;align=left;verticalAlign=middle;whiteSpace=wrap;rounded=0;fontSize=12;" parent="xz4rLBF5K8dxZVSBUItQ-44" vertex="1">
          <mxGeometry x="18.669999999999998" y="46.36363636363636" width="111.33" height="108.18181818181817" as="geometry" />
        </mxCell>
        <mxCell id="xz4rLBF5K8dxZVSBUItQ-48" value="" style="group" parent="xz4rLBF5K8dxZVSBUItQ-38" vertex="1" connectable="0">
          <mxGeometry x="320" y="86.40999999999997" width="60" height="185" as="geometry" />
        </mxCell>
        <mxCell id="xz4rLBF5K8dxZVSBUItQ-49" value="..." style="rounded=0;whiteSpace=wrap;html=1;fontSize=15;fillColor=#d5e8d4;strokeColor=#82b366;" parent="xz4rLBF5K8dxZVSBUItQ-48" vertex="1">
          <mxGeometry width="30" height="185" as="geometry" />
        </mxCell>
        <mxCell id="xz4rLBF5K8dxZVSBUItQ-50" value="..." style="rounded=0;whiteSpace=wrap;html=1;fontSize=15;fillColor=#60a917;strokeColor=#2D7600;fontColor=#ffffff;" parent="xz4rLBF5K8dxZVSBUItQ-48" vertex="1">
          <mxGeometry x="30" width="30" height="185" as="geometry" />
        </mxCell>
        <mxCell id="xz4rLBF5K8dxZVSBUItQ-51" value="" style="endArrow=classic;startArrow=classic;html=1;fontSize=16;startFill=1;" parent="xz4rLBF5K8dxZVSBUItQ-38" edge="1">
          <mxGeometry width="50" height="50" relative="1" as="geometry">
            <mxPoint x="380" y="75" as="sourcePoint" />
            <mxPoint x="20" y="74.65999999999997" as="targetPoint" />
          </mxGeometry>
        </mxCell>
        <mxCell id="xz4rLBF5K8dxZVSBUItQ-52" value="n_slots" style="text;html=1;strokeColor=none;fillColor=none;align=center;verticalAlign=middle;whiteSpace=wrap;rounded=0;fontSize=16;" parent="xz4rLBF5K8dxZVSBUItQ-38" vertex="1">
          <mxGeometry x="183.45" y="50" width="40" height="20" as="geometry" />
        </mxCell>
        <mxCell id="xz4rLBF5K8dxZVSBUItQ-53" value="assembled and converted image" style="rounded=0;whiteSpace=wrap;html=1;fontSize=16;align=center;verticalAlign=bottom;" parent="xz4rLBF5K8dxZVSBUItQ-38" vertex="1">
          <mxGeometry x="20" y="271.40999999999985" width="290" height="33.59" as="geometry" />
        </mxCell>
        <mxCell id="xz4rLBF5K8dxZVSBUItQ-54" value="ImageBuffer" style="text;html=1;strokeColor=none;fillColor=none;align=left;verticalAlign=middle;whiteSpace=wrap;rounded=0;fontSize=25;" parent="xz4rLBF5K8dxZVSBUItQ-38" vertex="1">
          <mxGeometry x="20" width="240" height="40" as="geometry" />
        </mxCell>
        <mxCell id="xz4rLBF5K8dxZVSBUItQ-55" value="" style="shape=flexArrow;endArrow=classic;html=1;fontSize=16;fillColor=#008a00;strokeColor=#005700;" parent="1" edge="1">
          <mxGeometry width="50" height="50" relative="1" as="geometry">
            <mxPoint x="390" y="350" as="sourcePoint" />
            <mxPoint x="390" y="520" as="targetPoint" />
          </mxGeometry>
        </mxCell>
        <mxCell id="xz4rLBF5K8dxZVSBUItQ-56" value="" style="shape=flexArrow;endArrow=classic;html=1;fontSize=16;fillColor=#008a00;strokeColor=#005700;" parent="1" edge="1">
          <mxGeometry width="50" height="50" relative="1" as="geometry">
            <mxPoint x="789.58" y="770" as="sourcePoint" />
            <mxPoint x="789.58" y="810.9099999999999" as="targetPoint" />
          </mxGeometry>
        </mxCell>
        <mxCell id="xz4rLBF5K8dxZVSBUItQ-96" value="" style="shape=flexArrow;endArrow=classic;html=1;fontSize=16;fillColor=#008a00;strokeColor=#005700;" parent="1" edge="1">
          <mxGeometry width="50" height="50" relative="1" as="geometry">
            <mxPoint x="250" y="234" as="sourcePoint" />
            <mxPoint x="340" y="233.57" as="targetPoint" />
          </mxGeometry>
        </mxCell>
        <mxCell id="xz4rLBF5K8dxZVSBUItQ-97" value="" style="group" parent="1" vertex="1" connectable="0">
          <mxGeometry x="89.99999999999997" y="199.99999999999997" width="146.69" height="67.71000000000001" as="geometry" />
        </mxCell>
        <mxCell id="xz4rLBF5K8dxZVSBUItQ-98" value="" style="shape=cube;whiteSpace=wrap;html=1;boundedLbl=1;backgroundOutline=1;darkOpacity=0.05;darkOpacity2=0.1;rotation=90;size=11;fillColor=#ffff88;strokeColor=#36393d;" parent="xz4rLBF5K8dxZVSBUItQ-97" vertex="1">
          <mxGeometry x="39.49000000000002" y="-39.48999999999997" width="67.71" height="146.69" as="geometry" />
        </mxCell>
        <mxCell id="xz4rLBF5K8dxZVSBUItQ-99" value="&lt;font style=&quot;font-size: 18px&quot;&gt;std_udp_recv&lt;/font&gt;" style="text;html=1;strokeColor=none;fillColor=none;align=center;verticalAlign=middle;whiteSpace=wrap;rounded=0;fontSize=25;" parent="xz4rLBF5K8dxZVSBUItQ-97" vertex="1">
          <mxGeometry x="14.009999999999998" y="3.840000000000174" width="110" height="60.01" as="geometry" />
        </mxCell>
        <mxCell id="xz4rLBF5K8dxZVSBUItQ-101" value="" style="group" parent="1" vertex="1" connectable="0">
          <mxGeometry x="110" y="19.09" width="120" height="80" as="geometry" />
        </mxCell>
        <mxCell id="xz4rLBF5K8dxZVSBUItQ-102" value="" style="group" parent="xz4rLBF5K8dxZVSBUItQ-101" vertex="1" connectable="0">
          <mxGeometry width="120" height="80" as="geometry" />
        </mxCell>
        <mxCell id="xz4rLBF5K8dxZVSBUItQ-103" value="" style="triangle;whiteSpace=wrap;html=1;strokeColor=#000000;strokeWidth=3;fillColor=#E6E6E6;fontSize=36;fontColor=#000000;align=left;direction=west;" parent="xz4rLBF5K8dxZVSBUItQ-102" vertex="1">
          <mxGeometry x="35.294117647058826" y="-7.272727272727273" width="84.70588235294119" height="87.27272727272728" as="geometry" />
        </mxCell>
        <mxCell id="xz4rLBF5K8dxZVSBUItQ-104" value="" style="whiteSpace=wrap;html=1;aspect=fixed;strokeColor=#000000;strokeWidth=3;fillColor=#E6E6E6;fontSize=36;fontColor=#000000;align=left;" parent="xz4rLBF5K8dxZVSBUItQ-102" vertex="1">
          <mxGeometry y="-7.272727272727273" width="84.70588235294119" height="84.70588235294119" as="geometry" />
        </mxCell>
        <mxCell id="xz4rLBF5K8dxZVSBUItQ-105" value="" style="text;html=1;align=center;verticalAlign=middle;whiteSpace=wrap;rounded=0;fontSize=30;fillColor=#ffffff;strokeWidth=3;strokeColor=#000000;" parent="xz4rLBF5K8dxZVSBUItQ-102" vertex="1">
          <mxGeometry x="14.12" y="20" width="91.76" height="30" as="geometry" />
        </mxCell>
        <mxCell id="xz4rLBF5K8dxZVSBUItQ-106" value="&lt;span style=&quot;font-size: 20px&quot;&gt;Detector&lt;/span&gt;" style="text;html=1;strokeColor=none;fillColor=none;align=center;verticalAlign=middle;whiteSpace=wrap;rounded=0;fontSize=17;" parent="xz4rLBF5K8dxZVSBUItQ-102" vertex="1">
          <mxGeometry x="20" y="24.999999999999996" width="80" height="20" as="geometry" />
        </mxCell>
        <mxCell id="xz4rLBF5K8dxZVSBUItQ-2" value="" style="ellipse;shape=cloud;whiteSpace=wrap;html=1;fontSize=10;align=center;fillColor=#f5f5f5;strokeColor=#666666;fontColor=#333333;direction=east;" parent="1" vertex="1">
          <mxGeometry x="1071.0500000000002" y="800" width="130" height="100" as="geometry" />
        </mxCell>
        <mxCell id="xz4rLBF5K8dxZVSBUItQ-118" value="" style="group" parent="1" vertex="1" connectable="0">
          <mxGeometry x="220.00499999999994" y="529.995" width="266.40999999999997" height="69.83499999999998" as="geometry" />
        </mxCell>
        <mxCell id="xz4rLBF5K8dxZVSBUItQ-59" value="" style="shape=cube;whiteSpace=wrap;html=1;boundedLbl=1;backgroundOutline=1;darkOpacity=0.05;darkOpacity2=0.1;rotation=90;size=11;fillColor=#ffff88;strokeColor=#36393d;" parent="xz4rLBF5K8dxZVSBUItQ-118" vertex="1">
          <mxGeometry x="98.29500000000007" y="-98.29500000000002" width="69.82" height="266.41" as="geometry" />
        </mxCell>
        <mxCell id="xz4rLBF5K8dxZVSBUItQ-60" value="std_assembler" style="text;html=1;strokeColor=none;fillColor=none;align=center;verticalAlign=middle;whiteSpace=wrap;rounded=0;fontSize=25;" parent="xz4rLBF5K8dxZVSBUItQ-118" vertex="1">
          <mxGeometry x="13.205000000000041" y="9.824999999999989" width="240" height="60.01" as="geometry" />
        </mxCell>
        <mxCell id="xz4rLBF5K8dxZVSBUItQ-5" style="edgeStyle=orthogonalEdgeStyle;rounded=0;orthogonalLoop=1;jettySize=auto;html=1;startArrow=none;startFill=0;fontSize=16;endArrow=classic;endFill=1;strokeWidth=3;strokeColor=#FF0000;" parent="1" edge="1">
          <mxGeometry relative="1" as="geometry">
            <mxPoint x="499" y="590" as="sourcePoint" />
            <mxPoint x="720" y="860" as="targetPoint" />
            <Array as="points">
              <mxPoint x="499" y="590" />
              <mxPoint x="540" y="590" />
              <mxPoint x="540" y="860" />
            </Array>
          </mxGeometry>
        </mxCell>
        <mxCell id="xz4rLBF5K8dxZVSBUItQ-57" value="" style="shape=flexArrow;endArrow=classic;html=1;fontSize=16;fillColor=#008a00;strokeColor=#005700;" parent="1" edge="1">
          <mxGeometry width="50" height="50" relative="1" as="geometry">
            <mxPoint x="500.0000000000002" y="564.5900000000001" as="sourcePoint" />
            <mxPoint x="580" y="565" as="targetPoint" />
          </mxGeometry>
        </mxCell>
        <mxCell id="xz4rLBF5K8dxZVSBUItQ-123" value="" style="group" parent="1" vertex="1" connectable="0">
          <mxGeometry x="724.4749999999999" y="820.0050000000001" width="131.06000000000006" height="67.71000000000004" as="geometry" />
        </mxCell>
        <mxCell id="xz4rLBF5K8dxZVSBUItQ-65" value="" style="group;fontSize=10;" parent="xz4rLBF5K8dxZVSBUItQ-123" vertex="1" connectable="0">
          <mxGeometry width="131.06000000000006" height="67.71000000000004" as="geometry" />
        </mxCell>
        <mxCell id="xz4rLBF5K8dxZVSBUItQ-66" value="" style="shape=cube;whiteSpace=wrap;html=1;boundedLbl=1;backgroundOutline=1;darkOpacity=0.05;darkOpacity2=0.1;rotation=90;size=11;fillColor=#cdeb8b;strokeColor=#36393d;" parent="xz4rLBF5K8dxZVSBUItQ-65" vertex="1">
          <mxGeometry x="31.67500000000009" y="-31.674999999999955" width="67.71" height="131.06" as="geometry" />
        </mxCell>
        <mxCell id="xz4rLBF5K8dxZVSBUItQ-67" value="&lt;font style=&quot;font-size: 14px&quot;&gt;std_stream_send&lt;/font&gt;" style="text;html=1;strokeColor=none;fillColor=none;align=center;verticalAlign=middle;whiteSpace=wrap;rounded=0;fontSize=25;" parent="xz4rLBF5K8dxZVSBUItQ-65" vertex="1">
          <mxGeometry x="4.99500000000009" y="3.8450000000000273" width="110" height="60.01" as="geometry" />
        </mxCell>
        <mxCell id="xz4rLBF5K8dxZVSBUItQ-127" value="" style="shape=flexArrow;endArrow=classic;html=1;fontSize=16;fillColor=#008a00;strokeColor=#005700;" parent="1" edge="1">
          <mxGeometry width="50" height="50" relative="1" as="geometry">
            <mxPoint x="160" y="111.82" as="sourcePoint" />
            <mxPoint x="160" y="191.82" as="targetPoint" />
          </mxGeometry>
        </mxCell>
        <mxCell id="xz4rLBF5K8dxZVSBUItQ-61" value="" style="group" parent="1" vertex="1" connectable="0">
          <mxGeometry x="939.9949999999999" y="250.0050000000001" width="131.06000000000006" height="67.71000000000004" as="geometry" />
        </mxCell>
        <mxCell id="xz4rLBF5K8dxZVSBUItQ-62" value="" style="shape=cube;whiteSpace=wrap;html=1;boundedLbl=1;backgroundOutline=1;darkOpacity=0.05;darkOpacity2=0.1;rotation=90;size=11;fillColor=#e1d5e7;strokeColor=#9673a6;" parent="xz4rLBF5K8dxZVSBUItQ-61" vertex="1">
          <mxGeometry x="31.67500000000009" y="-31.674999999999955" width="67.71" height="131.06" as="geometry" />
        </mxCell>
        <mxCell id="xz4rLBF5K8dxZVSBUItQ-63" value="&lt;font style=&quot;font-size: 18px&quot;&gt;writer_agent&lt;/font&gt;" style="text;html=1;strokeColor=none;fillColor=none;align=center;verticalAlign=middle;whiteSpace=wrap;rounded=0;fontSize=25;" parent="xz4rLBF5K8dxZVSBUItQ-61" vertex="1">
          <mxGeometry x="4.99500000000009" y="3.8450000000000273" width="110" height="60.01" as="geometry" />
        </mxCell>
        <mxCell id="xz4rLBF5K8dxZVSBUItQ-64" style="edgeStyle=orthogonalEdgeStyle;rounded=0;orthogonalLoop=1;jettySize=auto;html=1;startArrow=none;startFill=0;fontSize=16;endArrow=classic;endFill=1;strokeWidth=3;strokeColor=#FF0000;" parent="1" edge="1">
          <mxGeometry relative="1" as="geometry">
            <mxPoint x="500" y="540" as="sourcePoint" />
            <mxPoint x="1000" y="330" as="targetPoint" />
            <Array as="points">
              <mxPoint x="540" y="540" />
              <mxPoint x="540" y="390" />
            </Array>
          </mxGeometry>
        </mxCell>
        <mxCell id="xz4rLBF5K8dxZVSBUItQ-86" value="" style="group" parent="1" vertex="1" connectable="0">
          <mxGeometry x="1344.0049999999999" y="252.0050000000001" width="131.06000000000006" height="70.02" as="geometry" />
        </mxCell>
        <mxCell id="xz4rLBF5K8dxZVSBUItQ-87" value="" style="group;fontSize=10;" parent="xz4rLBF5K8dxZVSBUItQ-86" vertex="1" connectable="0">
          <mxGeometry width="131.06000000000006" height="70.02" as="geometry" />
        </mxCell>
        <mxCell id="xz4rLBF5K8dxZVSBUItQ-88" value="" style="shape=cube;whiteSpace=wrap;html=1;boundedLbl=1;backgroundOutline=1;darkOpacity=0.05;darkOpacity2=0.1;rotation=90;size=11;fillColor=#e1d5e7;strokeColor=#9673a6;" parent="xz4rLBF5K8dxZVSBUItQ-87" vertex="1">
          <mxGeometry x="31.67500000000009" y="-31.674999999999955" width="67.71" height="131.06" as="geometry" />
        </mxCell>
        <mxCell id="xz4rLBF5K8dxZVSBUItQ-89" value="&lt;font style=&quot;font-size: 17px;&quot;&gt;std_h5_writer&lt;/font&gt;" style="text;html=1;strokeColor=none;fillColor=none;align=center;verticalAlign=middle;whiteSpace=wrap;rounded=0;fontSize=17;" parent="xz4rLBF5K8dxZVSBUItQ-87" vertex="1">
          <mxGeometry y="20.009999999999998" width="120" height="39.99" as="geometry" />
        </mxCell>
        <mxCell id="xz4rLBF5K8dxZVSBUItQ-131" style="edgeStyle=orthogonalEdgeStyle;rounded=0;orthogonalLoop=1;jettySize=auto;html=1;startArrow=none;startFill=0;fontSize=16;endArrow=classic;endFill=1;strokeWidth=3;strokeColor=#FF0000;" parent="1" edge="1">
          <mxGeometry relative="1" as="geometry">
            <mxPoint x="1081.53" y="290" as="sourcePoint" />
            <mxPoint x="1340" y="290" as="targetPoint" />
            <Array as="points">
              <mxPoint x="1311.53" y="290" />
            </Array>
          </mxGeometry>
        </mxCell>
        <mxCell id="xz4rLBF5K8dxZVSBUItQ-92" value="" style="group" parent="1" vertex="1" connectable="0">
          <mxGeometry x="1130" y="228.85999999999996" width="160" height="110" as="geometry" />
        </mxCell>
        <mxCell id="xz4rLBF5K8dxZVSBUItQ-93" value="" style="rounded=0;whiteSpace=wrap;html=1;fontSize=15;fillColor=#e1d5e7;strokeColor=none;" parent="xz4rLBF5K8dxZVSBUItQ-92" vertex="1">
          <mxGeometry width="160" height="110" as="geometry" />
        </mxCell>
        <mxCell id="xz4rLBF5K8dxZVSBUItQ-94" value="&lt;b&gt;StoreStream&lt;/b&gt;" style="text;html=1;strokeColor=none;fillColor=none;align=center;verticalAlign=middle;whiteSpace=wrap;rounded=0;fontSize=15;" parent="xz4rLBF5K8dxZVSBUItQ-92" vertex="1">
          <mxGeometry width="160" height="40" as="geometry" />
        </mxCell>
        <mxCell id="xz4rLBF5K8dxZVSBUItQ-95" value="ImageMetadata &lt;b&gt;metadata&lt;/b&gt;&lt;br&gt;uint64_t &lt;b&gt;run_id&lt;/b&gt;&lt;br&gt;uint32_t &lt;b&gt;i_image&lt;/b&gt;&lt;br&gt;uint32_t &lt;b&gt;n_images&lt;/b&gt;" style="text;html=1;strokeColor=none;fillColor=none;align=left;verticalAlign=top;whiteSpace=wrap;rounded=0;fontSize=12;" parent="xz4rLBF5K8dxZVSBUItQ-92" vertex="1">
          <mxGeometry x="10" y="40" width="150" height="70" as="geometry" />
        </mxCell>
        <mxCell id="xz4rLBF5K8dxZVSBUItQ-132" value="" style="group" parent="1" vertex="1" connectable="0">
          <mxGeometry x="1050" y="511.03" width="192.90500000000043" height="69.81999999999994" as="geometry" />
        </mxCell>
        <mxCell id="xz4rLBF5K8dxZVSBUItQ-111" value="" style="shape=cube;whiteSpace=wrap;html=1;boundedLbl=1;backgroundOutline=1;darkOpacity=0.05;darkOpacity2=0.1;rotation=90;size=11;direction=east;flipV=0;flipH=0;fillColor=#cdeb8b;strokeColor=#36393d;" parent="xz4rLBF5K8dxZVSBUItQ-132" vertex="1">
          <mxGeometry x="62.05500000000029" y="-61.02999999999997" width="69.82" height="191.88" as="geometry" />
        </mxCell>
        <mxCell id="xz4rLBF5K8dxZVSBUItQ-112" value="std_stream_recv" style="text;html=1;strokeColor=none;fillColor=none;align=center;verticalAlign=middle;whiteSpace=wrap;rounded=0;fontSize=20;direction=east;rotation=0;" parent="xz4rLBF5K8dxZVSBUItQ-132" vertex="1">
          <mxGeometry y="8.970000000000027" width="180" height="60" as="geometry" />
        </mxCell>
        <mxCell id="xz4rLBF5K8dxZVSBUItQ-134" value="" style="shape=flexArrow;endArrow=classic;html=1;fontSize=16;fillColor=#008a00;strokeColor=#005700;" parent="1" edge="1">
          <mxGeometry width="50" height="50" relative="1" as="geometry">
            <mxPoint x="1040" y="551.03" as="sourcePoint" />
            <mxPoint x="1000" y="551.03" as="targetPoint" />
          </mxGeometry>
        </mxCell>
        <mxCell id="xz4rLBF5K8dxZVSBUItQ-151" value="" style="group" parent="1" vertex="1" connectable="0">
          <mxGeometry x="1331.53" y="70" width="150" height="120" as="geometry" />
        </mxCell>
        <mxCell id="xz4rLBF5K8dxZVSBUItQ-148" value="H5 file" style="text;html=1;strokeColor=none;fillColor=none;align=center;verticalAlign=middle;whiteSpace=wrap;rounded=0;fontSize=24;fontColor=#000000;" parent="xz4rLBF5K8dxZVSBUItQ-151" vertex="1">
          <mxGeometry y="90" width="150" height="30" as="geometry" />
        </mxCell>
        <mxCell id="xz4rLBF5K8dxZVSBUItQ-149" value="" style="shape=note;whiteSpace=wrap;html=1;backgroundOutline=1;darkOpacity=0.05;strokeColor=#9673a6;strokeWidth=3;fillColor=#e1d5e7;fontSize=36;align=left;" parent="xz4rLBF5K8dxZVSBUItQ-151" vertex="1">
          <mxGeometry x="40" width="70" height="90" as="geometry" />
        </mxCell>
        <mxCell id="xz4rLBF5K8dxZVSBUItQ-152" value="" style="shape=flexArrow;endArrow=classic;html=1;fontSize=16;fillColor=#008a00;strokeColor=#005700;" parent="1" edge="1">
          <mxGeometry width="50" height="50" relative="1" as="geometry">
            <mxPoint x="861.06" y="857.1200000000002" as="sourcePoint" />
            <mxPoint x="1080" y="858" as="targetPoint" />
          </mxGeometry>
        </mxCell>
        <mxCell id="xz4rLBF5K8dxZVSBUItQ-153" value="" style="shape=flexArrow;endArrow=classic;html=1;fontSize=16;fillColor=#008a00;strokeColor=#005700;" parent="1" edge="1">
          <mxGeometry width="50" height="50" relative="1" as="geometry">
            <mxPoint x="1140" y="740" as="sourcePoint" />
            <mxPoint x="1140" y="590" as="targetPoint" />
            <Array as="points">
              <mxPoint x="1140" y="690" />
            </Array>
          </mxGeometry>
        </mxCell>
        <mxCell id="xz4rLBF5K8dxZVSBUItQ-183" value="" style="group" parent="1" vertex="1" connectable="0">
          <mxGeometry x="560" y="377" width="120" height="26.30000000000001" as="geometry" />
        </mxCell>
        <mxCell id="xz4rLBF5K8dxZVSBUItQ-169" value="" style="rounded=0;whiteSpace=wrap;html=1;fontSize=15;fillColor=#d5e8d4;strokeColor=none;" parent="xz4rLBF5K8dxZVSBUItQ-183" vertex="1">
          <mxGeometry width="120" height="26.3" as="geometry" />
        </mxCell>
        <mxCell id="xz4rLBF5K8dxZVSBUItQ-170" value="&lt;b&gt;ImageMetadata&lt;/b&gt;" style="text;html=1;strokeColor=none;fillColor=none;align=center;verticalAlign=middle;whiteSpace=wrap;rounded=0;fontSize=15;" parent="xz4rLBF5K8dxZVSBUItQ-183" vertex="1">
          <mxGeometry width="120" height="26.3" as="geometry" />
        </mxCell>
        <mxCell id="xz4rLBF5K8dxZVSBUItQ-184" value="" style="group" parent="1" vertex="1" connectable="0">
          <mxGeometry x="560" y="847.25" width="120" height="26.30000000000001" as="geometry" />
        </mxCell>
        <mxCell id="xz4rLBF5K8dxZVSBUItQ-185" value="" style="rounded=0;whiteSpace=wrap;html=1;fontSize=15;fillColor=#d5e8d4;strokeColor=none;" parent="xz4rLBF5K8dxZVSBUItQ-184" vertex="1">
          <mxGeometry width="120" height="26.3" as="geometry" />
        </mxCell>
        <mxCell id="xz4rLBF5K8dxZVSBUItQ-186" value="&lt;b&gt;ImageMetadata&lt;/b&gt;" style="text;html=1;strokeColor=none;fillColor=none;align=center;verticalAlign=middle;whiteSpace=wrap;rounded=0;fontSize=15;" parent="xz4rLBF5K8dxZVSBUItQ-184" vertex="1">
          <mxGeometry width="120" height="26.3" as="geometry" />
        </mxCell>
        <mxCell id="xz4rLBF5K8dxZVSBUItQ-78" value="" style="rounded=0;whiteSpace=wrap;html=1;fontSize=15;fillColor=#d5e8d4;strokeColor=none;" parent="1" vertex="1">
          <mxGeometry x="911.06" y="830.8100000000001" width="120" height="26.3" as="geometry" />
        </mxCell>
        <mxCell id="xz4rLBF5K8dxZVSBUItQ-187" value="" style="group" parent="1" vertex="1" connectable="0">
          <mxGeometry x="911.06" y="830.8100000000001" width="120" height="49.18999999999994" as="geometry" />
        </mxCell>
        <mxCell id="xz4rLBF5K8dxZVSBUItQ-79" value="&lt;b&gt;ImageMetadata&lt;/b&gt;" style="text;html=1;strokeColor=none;fillColor=none;align=center;verticalAlign=middle;whiteSpace=wrap;rounded=0;fontSize=15;" parent="xz4rLBF5K8dxZVSBUItQ-187" vertex="1">
          <mxGeometry width="120" height="26.3" as="geometry" />
        </mxCell>
        <mxCell id="xz4rLBF5K8dxZVSBUItQ-80" value="&lt;b&gt;image data&lt;/b&gt;" style="text;html=1;strokeColor=none;fillColor=#60a917;align=center;verticalAlign=middle;whiteSpace=wrap;rounded=0;fontSize=15;fontColor=#ffffff;" parent="xz4rLBF5K8dxZVSBUItQ-187" vertex="1">
          <mxGeometry y="26.299999999999955" width="120" height="22.89" as="geometry" />
        </mxCell>
        <mxCell id="xz4rLBF5K8dxZVSBUItQ-215" value="" style="group" parent="1" vertex="1" connectable="0">
          <mxGeometry x="1081.45" y="40" width="218.55" height="160" as="geometry" />
        </mxCell>
        <mxCell id="xz4rLBF5K8dxZVSBUItQ-216" value="" style="group" parent="xz4rLBF5K8dxZVSBUItQ-215" vertex="1" connectable="0">
          <mxGeometry width="218.55" height="40" as="geometry" />
        </mxCell>
        <mxCell id="xz4rLBF5K8dxZVSBUItQ-217" value="" style="rounded=0;whiteSpace=wrap;html=1;fillColor=#e1d5e7;strokeColor=#9673a6;" parent="xz4rLBF5K8dxZVSBUItQ-216" vertex="1">
          <mxGeometry y="30" width="218.55" height="10" as="geometry" />
        </mxCell>
        <mxCell id="xz4rLBF5K8dxZVSBUItQ-218" value="&lt;font style=&quot;font-size: 20px&quot;&gt;Detector writer&lt;/font&gt;" style="text;html=1;strokeColor=none;fillColor=none;align=left;verticalAlign=middle;whiteSpace=wrap;rounded=0;fontColor=#000000;fontStyle=1" parent="xz4rLBF5K8dxZVSBUItQ-216" vertex="1">
          <mxGeometry x="2.762941958351777" width="213.03057155516174" height="30" as="geometry" />
        </mxCell>
        <mxCell id="xz4rLBF5K8dxZVSBUItQ-219" value="&lt;h1 style=&quot;font-size: 14px&quot;&gt;&lt;font style=&quot;font-size: 14px&quot;&gt;+ write assembled images&lt;br&gt;&lt;/font&gt;&lt;/h1&gt;&lt;p&gt;Parallel HDF5 writer that defines the detector image data file format. Writes assembled images and metadata to H5 files. &lt;b&gt;writer agent&lt;/b&gt; controls &lt;b&gt;std_h5_writer&lt;/b&gt; via stream protocol (&lt;b&gt;StoreStream&lt;/b&gt;).&lt;/p&gt;" style="text;html=1;strokeColor=none;fillColor=none;spacing=5;spacingTop=-20;whiteSpace=wrap;overflow=hidden;rounded=0;fontColor=#000000;" parent="xz4rLBF5K8dxZVSBUItQ-215" vertex="1">
          <mxGeometry y="50" width="218.55" height="110" as="geometry" />
        </mxCell>
        <mxCell id="xz4rLBF5K8dxZVSBUItQ-221" value="" style="group" parent="1" vertex="1" connectable="0">
          <mxGeometry x="1080" y="630" width="120" height="49.18999999999994" as="geometry" />
        </mxCell>
        <mxCell id="xz4rLBF5K8dxZVSBUItQ-198" value="" style="rounded=0;whiteSpace=wrap;html=1;fontSize=15;fillColor=#d5e8d4;strokeColor=none;" parent="xz4rLBF5K8dxZVSBUItQ-221" vertex="1">
          <mxGeometry width="120" height="26.3" as="geometry" />
        </mxCell>
        <mxCell id="xz4rLBF5K8dxZVSBUItQ-199" value="" style="group" parent="xz4rLBF5K8dxZVSBUItQ-221" vertex="1" connectable="0">
          <mxGeometry width="120" height="49.18999999999994" as="geometry" />
        </mxCell>
        <mxCell id="xz4rLBF5K8dxZVSBUItQ-200" value="&lt;b&gt;ImageMetadata&lt;/b&gt;" style="text;html=1;strokeColor=none;fillColor=none;align=center;verticalAlign=middle;whiteSpace=wrap;rounded=0;fontSize=15;" parent="xz4rLBF5K8dxZVSBUItQ-199" vertex="1">
          <mxGeometry width="120" height="26.3" as="geometry" />
        </mxCell>
        <mxCell id="xz4rLBF5K8dxZVSBUItQ-201" value="&lt;b&gt;image data&lt;/b&gt;" style="text;html=1;strokeColor=none;fillColor=#60a917;align=center;verticalAlign=middle;whiteSpace=wrap;rounded=0;fontSize=15;fontColor=#ffffff;" parent="xz4rLBF5K8dxZVSBUItQ-199" vertex="1">
          <mxGeometry y="26.299999999999955" width="120" height="22.89" as="geometry" />
        </mxCell>
        <mxCell id="xz4rLBF5K8dxZVSBUItQ-222" value="" style="group" parent="1" vertex="1" connectable="0">
          <mxGeometry x="1250" y="640.01" width="250" height="170" as="geometry" />
        </mxCell>
        <mxCell id="xz4rLBF5K8dxZVSBUItQ-223" value="" style="group" parent="xz4rLBF5K8dxZVSBUItQ-222" vertex="1" connectable="0">
          <mxGeometry width="218.55" height="40" as="geometry" />
        </mxCell>
        <mxCell id="xz4rLBF5K8dxZVSBUItQ-224" value="" style="rounded=0;whiteSpace=wrap;html=1;fillColor=#cdeb8b;strokeColor=#36393d;" parent="xz4rLBF5K8dxZVSBUItQ-223" vertex="1">
          <mxGeometry y="30" width="218.55" height="10" as="geometry" />
        </mxCell>
        <mxCell id="xz4rLBF5K8dxZVSBUItQ-225" value="&lt;font style=&quot;font-size: 20px&quot;&gt;Detector buffer&lt;/font&gt;" style="text;html=1;strokeColor=none;fillColor=none;align=left;verticalAlign=middle;whiteSpace=wrap;rounded=0;fontColor=#000000;fontStyle=1" parent="xz4rLBF5K8dxZVSBUItQ-223" vertex="1">
          <mxGeometry x="2.762941958351777" width="213.03057155516174" height="30" as="geometry" />
        </mxCell>
        <mxCell id="xz4rLBF5K8dxZVSBUItQ-226" value="&lt;h1 style=&quot;font-size: 14px&quot;&gt;&lt;font style=&quot;font-size: 14px&quot;&gt;+ buffer assembled images&lt;br&gt;+ transfer images over network&lt;/font&gt;&lt;/h1&gt;&lt;p&gt;Defines image stream format (&lt;b&gt;ImageMetadata&lt;/b&gt;&amp;nbsp;and &lt;b&gt;image data&lt;/b&gt;), provides buffer (&lt;b&gt;ImageBuffer&lt;/b&gt;), and buffer transfer services (&lt;b&gt;std_stream_send&lt;/b&gt;&amp;nbsp;and &lt;b&gt;std_stream_recv&lt;/b&gt;).&lt;/p&gt;" style="text;html=1;strokeColor=none;fillColor=none;spacing=5;spacingTop=-20;whiteSpace=wrap;overflow=hidden;rounded=0;fontColor=#000000;" parent="xz4rLBF5K8dxZVSBUItQ-222" vertex="1">
          <mxGeometry y="50" width="250" height="120" as="geometry" />
        </mxCell>
        <mxCell id="xz4rLBF5K8dxZVSBUItQ-228" value="" style="shape=flexArrow;endArrow=classic;html=1;fontSize=16;fillColor=#008a00;strokeColor=#005700;" parent="1" edge="1">
          <mxGeometry width="50" height="50" relative="1" as="geometry">
            <mxPoint x="1000" y="449.84000000000015" as="sourcePoint" />
            <mxPoint x="1410" y="330" as="targetPoint" />
            <Array as="points">
              <mxPoint x="1410" y="450" />
            </Array>
          </mxGeometry>
        </mxCell>
        <mxCell id="xz4rLBF5K8dxZVSBUItQ-229" value="" style="shape=flexArrow;endArrow=classic;html=1;fontSize=16;fillColor=#008a00;strokeColor=#005700;" parent="1" edge="1">
          <mxGeometry width="50" height="50" relative="1" as="geometry">
            <mxPoint x="1406.29" y="239.73000000000013" as="sourcePoint" />
            <mxPoint x="1406.29" y="200" as="targetPoint" />
          </mxGeometry>
        </mxCell>
        <mxCell id="xz4rLBF5K8dxZVSBUItQ-232" value="" style="group" parent="1" vertex="1" connectable="0">
          <mxGeometry x="243.21" y="620" width="220" height="180" as="geometry" />
        </mxCell>
        <mxCell id="xz4rLBF5K8dxZVSBUItQ-213" value="" style="group" parent="xz4rLBF5K8dxZVSBUItQ-232" vertex="1" connectable="0">
          <mxGeometry width="220" height="180" as="geometry" />
        </mxCell>
        <mxCell id="xz4rLBF5K8dxZVSBUItQ-188" value="" style="group" parent="xz4rLBF5K8dxZVSBUItQ-213" vertex="1" connectable="0">
          <mxGeometry width="220" height="40" as="geometry" />
        </mxCell>
        <mxCell id="xz4rLBF5K8dxZVSBUItQ-171" value="" style="rounded=0;whiteSpace=wrap;html=1;fillColor=#ffff88;strokeColor=#36393d;" parent="xz4rLBF5K8dxZVSBUItQ-188" vertex="1">
          <mxGeometry y="30" width="220.00000000000003" height="10" as="geometry" />
        </mxCell>
        <mxCell id="xz4rLBF5K8dxZVSBUItQ-181" value="&lt;font style=&quot;font-size: 20px&quot;&gt;Detector readout&lt;/font&gt;" style="text;html=1;strokeColor=none;fillColor=none;align=left;verticalAlign=middle;whiteSpace=wrap;rounded=0;fontColor=#000000;fontStyle=1" parent="xz4rLBF5K8dxZVSBUItQ-188" vertex="1">
          <mxGeometry x="2.781273076355026" width="214.44395214887018" height="30" as="geometry" />
        </mxCell>
        <mxCell id="xz4rLBF5K8dxZVSBUItQ-212" value="&lt;h1 style=&quot;font-size: 14px&quot;&gt;&lt;font style=&quot;font-size: 14px&quot;&gt;+ receive udp from detector&lt;br&gt;+ synchronize modules&lt;br&gt;+ convert and assemble image&lt;/font&gt;&lt;/h1&gt;&lt;p&gt;Transforms detector into generic camera. Validate frames, synchronize modules, assemble and convert images. The output image should be in its final encoding.&lt;/p&gt;" style="text;html=1;strokeColor=none;fillColor=none;spacing=5;spacingTop=-20;whiteSpace=wrap;overflow=hidden;rounded=0;fontColor=#000000;" parent="xz4rLBF5K8dxZVSBUItQ-213" vertex="1">
          <mxGeometry x="1.45" y="50" width="218.55" height="130" as="geometry" />
        </mxCell>
        <mxCell id="xz4rLBF5K8dxZVSBUItQ-233" value="&lt;i&gt;another server&lt;/i&gt;" style="text;html=1;strokeColor=none;fillColor=none;align=center;verticalAlign=middle;whiteSpace=wrap;rounded=0;fontColor=#000000;" parent="1" vertex="1">
          <mxGeometry x="1100" y="735" width="80" height="40" as="geometry" />
        </mxCell>
        <mxCell id="xz4rLBF5K8dxZVSBUItQ-234" value="&lt;i&gt;another server&lt;/i&gt;" style="text;html=1;strokeColor=none;fillColor=none;align=center;verticalAlign=middle;whiteSpace=wrap;rounded=0;fontColor=#000000;" parent="1" vertex="1">
          <mxGeometry x="1101.05" y="833.8600000000001" width="80" height="40" as="geometry" />
        </mxCell>
        <mxCell id="BVyGM_InJQt0EqdJonBk-13" value="" style="group" vertex="1" connectable="0" parent="1">
          <mxGeometry x="80" y="667" width="120" height="213" as="geometry" />
        </mxCell>
        <mxCell id="BVyGM_InJQt0EqdJonBk-12" value="" style="rounded=0;whiteSpace=wrap;html=1;" vertex="1" parent="BVyGM_InJQt0EqdJonBk-13">
          <mxGeometry width="120" height="213" as="geometry" />
        </mxCell>
        <mxCell id="BVyGM_InJQt0EqdJonBk-1" value="" style="shape=flexArrow;endArrow=classic;html=1;fontSize=16;fillColor=#008a00;strokeColor=#005700;" edge="1" parent="BVyGM_InJQt0EqdJonBk-13">
          <mxGeometry width="50" height="50" relative="1" as="geometry">
            <mxPoint x="20.000000000000227" y="23.300000000000182" as="sourcePoint" />
            <mxPoint x="100.00000000000023" y="23.710000000000036" as="targetPoint" />
          </mxGeometry>
        </mxCell>
        <mxCell id="BVyGM_InJQt0EqdJonBk-2" style="edgeStyle=orthogonalEdgeStyle;rounded=0;orthogonalLoop=1;jettySize=auto;html=1;startArrow=none;startFill=0;fontSize=16;endArrow=classic;endFill=1;strokeWidth=3;strokeColor=#FF0000;" edge="1" parent="BVyGM_InJQt0EqdJonBk-13">
          <mxGeometry relative="1" as="geometry">
            <mxPoint x="19.999999999999773" y="74.66999999999996" as="sourcePoint" />
            <mxPoint x="100" y="74.84000000000003" as="targetPoint" />
            <Array as="points">
              <mxPoint x="50" y="74.84000000000003" />
              <mxPoint x="50" y="74.84000000000003" />
            </Array>
          </mxGeometry>
        </mxCell>
        <mxCell id="BVyGM_InJQt0EqdJonBk-3" value="metadata" style="text;html=1;strokeColor=none;fillColor=none;align=center;verticalAlign=middle;whiteSpace=wrap;rounded=0;" vertex="1" parent="BVyGM_InJQt0EqdJonBk-13">
          <mxGeometry x="20" y="74.67000000000007" width="80" height="20" as="geometry" />
        </mxCell>
        <mxCell id="BVyGM_InJQt0EqdJonBk-4" value="data + metadata" style="text;html=1;strokeColor=none;fillColor=none;align=center;verticalAlign=middle;whiteSpace=wrap;rounded=0;" vertex="1" parent="BVyGM_InJQt0EqdJonBk-13">
          <mxGeometry x="20" y="35.690000000000055" width="80" height="20" as="geometry" />
        </mxCell>
        <mxCell id="BVyGM_InJQt0EqdJonBk-6" value="" style="shape=cube;whiteSpace=wrap;html=1;boundedLbl=1;backgroundOutline=1;darkOpacity=0.05;darkOpacity2=0.1;rotation=90;size=6;direction=east;flipV=0;flipH=0;" vertex="1" parent="BVyGM_InJQt0EqdJonBk-13">
          <mxGeometry x="46.8599999999999" y="75.91000000000003" width="26.28" height="77.09" as="geometry" />
        </mxCell>
        <mxCell id="BVyGM_InJQt0EqdJonBk-8" value="process" style="text;html=1;strokeColor=none;fillColor=none;align=center;verticalAlign=middle;whiteSpace=wrap;rounded=0;" vertex="1" parent="BVyGM_InJQt0EqdJonBk-13">
          <mxGeometry x="20" y="129.06000000000012" width="80" height="20" as="geometry" />
        </mxCell>
        <mxCell id="BVyGM_InJQt0EqdJonBk-10" value="" style="rounded=0;whiteSpace=wrap;html=1;" vertex="1" parent="BVyGM_InJQt0EqdJonBk-13">
          <mxGeometry x="20" y="157.90999999999997" width="80" height="25.09" as="geometry" />
        </mxCell>
        <mxCell id="BVyGM_InJQt0EqdJonBk-11" value="data structure" style="text;html=1;strokeColor=none;fillColor=none;align=center;verticalAlign=middle;whiteSpace=wrap;rounded=0;" vertex="1" parent="BVyGM_InJQt0EqdJonBk-13">
          <mxGeometry x="20" y="183.00000000000023" width="80" height="20" as="geometry" />
        </mxCell>
        <mxCell id="UPVEB2Jc4wkfgU6b0rtM-1" value="Legend" style="text;html=1;strokeColor=none;fillColor=none;align=center;verticalAlign=middle;whiteSpace=wrap;rounded=0;fontSize=15;fontColor=#000000;" vertex="1" parent="1">
          <mxGeometry x="80" y="643.24" width="66.69" height="22.71" as="geometry" />
        </mxCell>
      </root>
    </mxGraphModel>
  </diagram>
</mxfile>
